<svg xmlns="http://www.w3.org/2000/svg" width="46.702" height="46.814" viewBox="0 0 46.702 46.814">
  <g id="Grupo_247" data-name="Grupo 247" transform="translate(-85.5 -7363.061)">
    <g id="Grupo_217" data-name="Grupo 217" transform="translate(85.5 7363.061)">
      <g id="Grupo_31" data-name="Grupo 31">
        <path id="Trazado_53" data-name="Trazado 53" d="M301.156,154.793l3.359-12.521a23.177,23.177,0,1,1,9.229,9.149Zm13.215-8.064.793.474a18.815,18.815,0,1,0-6.437-6.379l.485.8-1.872,6.99Z" transform="translate(-301.156 -107.978)" fill="#005077"/>
        <path id="Trazado_54" data-name="Trazado 54" d="M325.442,126.321c-.953-.57-2.192-1.206-3.312-.746-.859.35-1.41,1.7-1.966,2.384a.827.827,0,0,1-1.068.231,14.985,14.985,0,0,1-7.483-6.412.916.916,0,0,1,.116-1.253,5.069,5.069,0,0,0,1.36-2.208,4.834,4.834,0,0,0-.608-2.613c-.452-.972-.955-2.357-1.93-2.907a2.642,2.642,0,0,0-2.869.427,5.83,5.83,0,0,0-2.021,4.617,6.513,6.513,0,0,0,.182,1.465,12.169,12.169,0,0,0,1.4,3.24,26.139,26.139,0,0,0,1.467,2.23,22.654,22.654,0,0,0,6.365,5.908,19.21,19.21,0,0,0,3.967,1.889,8.86,8.86,0,0,0,4.62.73,5.6,5.6,0,0,0,4.188-3.117,2.71,2.71,0,0,0,.2-1.591C327.809,127.5,326.325,126.85,325.442,126.321Z" transform="translate(-293.26 -99.982)" fill="#005077" fill-rule="evenodd"/>
      </g>
    </g>
    <g id="Grupo_218" data-name="Grupo 218" transform="translate(117.339 7364.042)">
      <g id="Grupo_103" data-name="Grupo 103" transform="translate(0)">
        <circle id="Elipse_21" data-name="Elipse 21" cx="6.94" cy="6.94" r="6.94" fill="#c60c30"/>
      </g>
    </g>
  </g>
</svg>
