<svg xmlns="http://www.w3.org/2000/svg" xmlns:xlink="http://www.w3.org/1999/xlink" width="111.487" height="19.474" viewBox="0 0 111.487 19.474">
  <defs>
    <linearGradient id="linear-gradient" y1="0.071" x2="0" y2="0.998" gradientUnits="objectBoundingBox">
      <stop offset="0" stop-color="#eb2023"/>
      <stop offset="0.096" stop-color="#e92026"/>
      <stop offset="0.204" stop-color="#e31e27"/>
      <stop offset="0.299" stop-color="#e01e26"/>
      <stop offset="0.404" stop-color="#d81f27"/>
      <stop offset="0.5" stop-color="#cf2027"/>
      <stop offset="0.6" stop-color="#c62127"/>
      <stop offset="0.7" stop-color="#b92025"/>
      <stop offset="0.8" stop-color="#ae1f23"/>
      <stop offset="0.9" stop-color="#a01d22"/>
      <stop offset="1" stop-color="#901c1c"/>
    </linearGradient>
    <linearGradient id="linear-gradient-2" x1="0.115" y1="0.997" x2="0.99" y2="0.363" gradientUnits="objectBoundingBox">
      <stop offset="0" stop-color="#6c221f"/>
      <stop offset="0.249" stop-color="#7f2620"/>
      <stop offset="0.498" stop-color="#982b24"/>
      <stop offset="0.749" stop-color="#b53125"/>
      <stop offset="1" stop-color="#cb3327"/>
    </linearGradient>
    <linearGradient id="linear-gradient-3" x1="0.225" y1="0.869" x2="0.987" y2="0.234" gradientUnits="objectBoundingBox">
      <stop offset="0" stop-color="#e7ebee"/>
      <stop offset="0.249" stop-color="#dfe4e8"/>
      <stop offset="0.498" stop-color="#cad1d7"/>
      <stop offset="0.749" stop-color="#a8b5bd"/>
      <stop offset="1" stop-color="#93a6ad"/>
    </linearGradient>
    <linearGradient id="linear-gradient-4" x1="0.441" x2="0.441" y2="0.999" gradientUnits="objectBoundingBox">
      <stop offset="0" stop-color="#05aee9"/>
      <stop offset="0.096" stop-color="#00a9e0"/>
      <stop offset="0.204" stop-color="#07a3dc"/>
      <stop offset="0.299" stop-color="#089dd5"/>
      <stop offset="0.404" stop-color="#0a92cc"/>
      <stop offset="0.5" stop-color="#0f87c3"/>
      <stop offset="0.6" stop-color="#127cb8"/>
      <stop offset="0.7" stop-color="#0e70ad"/>
      <stop offset="0.8" stop-color="#0f63a3"/>
      <stop offset="0.9" stop-color="#135393"/>
      <stop offset="1" stop-color="#184485"/>
    </linearGradient>
    <clipPath id="clip-path">
      <path id="Trazado_202" data-name="Trazado 202" d="M273.355-1170.1H384.842v-19.474H273.355Z" transform="translate(-273.355 1189.571)"/>
    </clipPath>
  </defs>
  <g id="Grupo_257" data-name="Grupo 257" transform="translate(-3002.17 -4463)">
    <path id="Trazado_196" data-name="Trazado 196" d="M45.735,50.78l1.892,3.144a3.031,3.031,0,0,0,2.756,1.37h4.867l-5.7-6.9-.808-.46-2.133.7L45.53,50.189Z" transform="translate(3055.409 4426.417)" fill="url(#linear-gradient)"/>
    <path id="Trazado_197" data-name="Trazado 197" d="M49.007,46.666l-1.19-1.442-3.144,1.691.333,1.707.183.435c-.071-1.157,1.915-2.5,3.817-2.391Z" transform="translate(3055.955 4428.14)" fill="url(#linear-gradient-2)"/>
    <path id="Trazado_198" data-name="Trazado 198" d="M42.651,46.887l-1.7-2.812a1.579,1.579,0,0,1-.261-.923c0-.358.153-.554.738-.865a9.573,9.573,0,0,1,3.472-.469c2.3,0,2.853.738,3.088,1.535a3.285,3.285,0,0,0-1.089-.129c-2.424,0-4.362,1.177-4.362,2.958A2.41,2.41,0,0,0,42.651,46.887Z" transform="translate(3058.494 4430.31)" fill="url(#linear-gradient-3)"/>
    <path id="Trazado_199" data-name="Trazado 199" d="M25.963,22.816h2.288A2.157,2.157,0,0,1,30,23.6c.447.406,1.8,2.24,4.666,5.819h-3.1c-1.268,0-1.669-.216-2.159-.964Z" transform="translate(3067.876 4442.416)" fill="url(#linear-gradient-4)"/>
    <path id="Trazado_200" data-name="Trazado 200" d="M295.806,43.36l.166.595h0l.168-.595h.141l.109.745h-.113L296.2,43.5h0l-.174.608h-.121l-.169-.605h0l-.077.605h-.107l.109-.745Zm-.351,0v.1h-.219V44.1h-.108v-.649h-.219v-.1Z" transform="translate(2816.28 4437.607)" fill="#334357"/>
    <g id="Grupo_255" data-name="Grupo 255" transform="translate(3002.17 4463)" clip-path="url(#clip-path)">
      <path id="Trazado_201" data-name="Trazado 201" d="M332.735-1168.356h-.026l-1.3,3.681h2.633Zm2.331,6.581-.638-1.808h-3.409l-.639,1.808h-1.455l3.054-8.048H333.6l3.007,8.048Zm12.351-8.371h1.423v1.345h-1.423Zm.016,2.24h1.391v6.13h-1.391Zm-10.272-2.241h1.424v1.346h-1.424Zm.016,2.241h1.391v6.13h-1.391Zm8.737-2.233h-1.391v8.363h1.391Zm-4.434,5.374v2.99h-1.4v-4.555c0-.438-.05-1.271-.067-1.574h1.124c.121,0,.156.051.16.171,0,.181.012.76.012.76h.032a1.686,1.686,0,0,1,1.661-1.059,1.893,1.893,0,0,1,.721.144c0,.264-.027.843-.041,1-.009.1-.052.134-.1.134a.217.217,0,0,1-.1-.021,1.533,1.533,0,0,0-.57-.1c-.743,0-1.437.536-1.437,2.114m12.67,2.99v-3.959c0-.756-.345-1.217-.992-1.217-.856,0-1.424.911-1.424,2.14v3.036h-1.392v-4.5c0-.5-.045-1.218-.068-1.626h1.118c.126,0,.162.052.163.165,0,.131.015.765.015.765h.032a1.954,1.954,0,0,1,1.879-1.06,1.911,1.911,0,0,1,2.061,1.919v4.339Zm3.85-3.695h2.575c.053-.988-.466-1.542-1.249-1.542-.819,0-1.289.593-1.327,1.542m3.433,2.349c.077,0,.1.068.106.137.024.262.046.853.043,1a5.883,5.883,0,0,1-1.9.322c-1.951,0-3.126-1.009-3.126-3.183,0-1.866,1-3.192,2.8-3.192a2.439,2.439,0,0,1,2.607,2.648c0,.173-.019.464-.049.851h-3.93a1.717,1.717,0,0,0,1.9,1.8,3.334,3.334,0,0,0,1.434-.347.236.236,0,0,1,.117-.038m3.259,1.463c1.811,0,2.678-.74,2.678-1.842,0-1.084-.77-1.54-1.586-1.809-.234-.076-.463-.152-.677-.224-.558-.185-.848-.427-.848-.789,0-.382.349-.65,1.073-.65a3.155,3.155,0,0,1,1.378.363.254.254,0,0,0,.121.038c.044,0,.1-.027.105-.136.014-.205.038-.578.038-.936a3.909,3.909,0,0,0-1.758-.39c-1.5,0-2.417.779-2.417,1.806a1.755,1.755,0,0,0,1.43,1.7c.173.058.493.163.68.227.782.26,1.005.5,1.005.861,0,.477-.508.713-1.383.713a3.088,3.088,0,0,1-1.409-.356.249.249,0,0,0-.12-.038c-.1,0-.1.137-.106.16,0,.066-.037.7-.037.913a4.571,4.571,0,0,0,1.83.391m-82.019-6.7h-.026l-1.3,3.681h2.631Zm2.33,6.581-.638-1.808h-3.409l-.638,1.808h-1.455l3.054-8.049h1.62l3.007,8.049Zm22.738-8.371h1.423v1.345h-1.423Zm.017,2.241h1.39v6.13h-1.39Zm-2.987,3.141v2.99h-1.393v-4.555c0-.438-.05-1.272-.068-1.575h1.124c.121,0,.157.052.158.171,0,.181.015.76.015.76h.031a1.686,1.686,0,0,1,1.661-1.059,1.926,1.926,0,0,1,.722.143c0,.264-.029.843-.042,1-.009.1-.054.132-.1.132a.221.221,0,0,1-.1-.02,1.524,1.524,0,0,0-.568-.1c-.743,0-1.441.536-1.441,2.115m-10.276,2.99v-3.922c0-.707-.3-1.255-1.02-1.255-.812,0-1.28.889-1.28,2.134v3.043H290.8v-3.934c0-.643-.268-1.242-1.014-1.242-.824,0-1.284.887-1.284,2.178v3h-1.394v-4.465c0-.577-.051-1.392-.068-1.666h1.114c.126,0,.167.042.169.171,0,.163.013.76.013.76h.032a1.92,1.92,0,0,1,1.82-1.06,1.843,1.843,0,0,1,1.759,1.117,2.023,2.023,0,0,1,1.837-1.117,1.882,1.882,0,0,1,2.1,2.014v4.244Zm3.849-3.7h2.576c.053-.986-.464-1.541-1.248-1.541-.819,0-1.288.593-1.327,1.541m3.435,2.35c.076,0,.1.068.105.137.024.262.046.853.043,1a5.874,5.874,0,0,1-1.9.322c-1.952,0-3.126-1.011-3.126-3.184,0-1.864,1-3.191,2.8-3.191a2.439,2.439,0,0,1,2.607,2.648c0,.173-.02.464-.051.85h-3.93a1.718,1.718,0,0,0,1.9,1.8,3.313,3.313,0,0,0,1.435-.348.233.233,0,0,1,.118-.037m17.455-1.764H319c-1.748,0-2.092.608-2.092,1.225a.941.941,0,0,0,.986.983c.868,0,1.342-.838,1.342-1.72Zm.335,3.11a.19.19,0,0,1-.218-.2c-.013-.2-.041-.587-.041-.587h-.019a2.136,2.136,0,0,1-1.863.9,1.882,1.882,0,0,1-1.92-1.972c0-1.431,1.389-2.149,3.45-2.149h.274v-.225c0-.642-.457-.986-1.31-.986a3.83,3.83,0,0,0-1.654.4.252.252,0,0,1-.1.034c-.066,0-.1-.041-.107-.114-.011-.23-.035-.674-.038-.955a5.864,5.864,0,0,1,2-.4c1.822,0,2.6.845,2.6,2.2v2.39a12.186,12.186,0,0,0,.11,1.672Zm-4.809-1.346c.037,0,.088.024.1.132.027.292.038.77.039.92a3.694,3.694,0,0,1-1.619.411c-1.857,0-3-1.078-3-3.186,0-1.976,1.013-3.188,3-3.188a3.7,3.7,0,0,1,1.619.412c0,.218-.021.713-.039.92-.009.087-.051.129-.1.129a.207.207,0,0,1-.107-.029,2.869,2.869,0,0,0-1.249-.326c-1.182,0-1.669.774-1.669,2.081,0,1.166.389,2.079,1.669,2.079a2.876,2.876,0,0,0,1.211-.307c.074-.035.087-.049.145-.049m10.879,1.346v-3.959c0-.756-.345-1.217-.991-1.217-.856,0-1.426.91-1.426,2.14v3.036H321.83v-4.5c0-.5-.045-1.218-.067-1.627h1.116c.127,0,.164.053.165.167,0,.13.013.765.013.765h.03a1.958,1.958,0,0,1,1.88-1.06,1.911,1.911,0,0,1,2.063,1.918v4.341Z" transform="translate(-276.864 1177.196)" fill="#334357"/>
    </g>
  </g>
</svg>
