<svg xmlns="http://www.w3.org/2000/svg" width="48.4" height="37.505" viewBox="0 0 48.4 37.505">
  <g id="Grupo_192" data-name="Grupo 192" transform="translate(-1093.871 -323.471)">
    <g id="Grupo_150" data-name="Grupo 150" transform="translate(1093.871 323.471)">
      <g id="Grupo_143" data-name="Grupo 143" transform="translate(3.66 0)">
        <g id="Grupo_141" data-name="Grupo 141" transform="translate(1.682 2.487)">
          <path id="Trazado_87" data-name="Trazado 87" d="M1105.606,348.017v-8.993l24.468-10.09.784,28.967Z" transform="translate(-1105.606 -328.934)" fill="#fff"/>
        </g>
        <g id="Grupo_142" data-name="Grupo 142">
          <path id="Trazado_88" data-name="Trazado 88" d="M1126.444,328.445l.649,23.988-21.816-8.54v-6.719l21.167-8.729m3.232-4.974-27.766,11.45V346.19l28.685,11.229-.919-33.947Z" transform="translate(-1101.911 -323.471)" fill="#005077"/>
        </g>
      </g>
      <g id="Grupo_144" data-name="Grupo 144" transform="translate(0 11.45)">
        <path id="Trazado_89" data-name="Trazado 89" d="M1098.624,348.622h-4.752V359.89h4.752V348.622Z" transform="translate(-1093.871 -348.622)" fill="#005077"/>
      </g>
      <g id="Grupo_149" data-name="Grupo 149" transform="translate(14.452 0)">
        <g id="Grupo_147" data-name="Grupo 147">
          <g id="Grupo_145" data-name="Grupo 145" transform="translate(1.682 1.683)">
            <path id="Trazado_90" data-name="Trazado 90" d="M1144.6,357.749a15.291,15.291,0,1,1,15.291-15.29A15.308,15.308,0,0,1,1144.6,357.749Z" transform="translate(-1129.312 -327.168)" fill="#fff"/>
          </g>
          <g id="Grupo_146" data-name="Grupo 146">
            <path id="Trazado_91" data-name="Trazado 91" d="M1142.59,326.837a13.608,13.608,0,1,1-13.607,13.608,13.623,13.623,0,0,1,13.607-13.608m0-3.366a16.974,16.974,0,1,0,16.974,16.974,16.973,16.973,0,0,0-16.974-16.974Z" transform="translate(-1125.617 -323.471)" fill="#005077"/>
          </g>
        </g>
        <g id="Grupo_148" data-name="Grupo 148" transform="translate(9.67 9.67)">
          <circle id="Elipse_27" data-name="Elipse 27" cx="6.077" cy="6.077" r="6.077" transform="translate(0 11.833) rotate(-76.8)" fill="#c60c30"/>
        </g>
      </g>
    </g>
    <g id="Grupo_151" data-name="Grupo 151" transform="translate(1097.874 344.879)">
      <rect id="Rectángulo_17" data-name="Rectángulo 17" width="3.365" height="16.098" transform="translate(0 0)" fill="#005077"/>
    </g>
  </g>
</svg>
