<svg xmlns="http://www.w3.org/2000/svg" width="23.128" height="22.922" viewBox="0 0 23.128 17.922"><defs><style>.a{fill:#fff;}.b{fill:#005077;}.c{fill:#c60c30;}</style></defs><g transform="translate(-1093.871 -323.471)"><g transform="translate(1093.871 323.471)"><g transform="translate(1.749 0)"><g transform="translate(0.804 1.188)"><path class="a" d="M1105.606,338.053v-4.3l11.692-4.821.375,13.842Z" transform="translate(-1105.606 -328.934)"/></g><path class="b" d="M1113.634,325.848l.31,11.462-10.425-4.081v-3.21l10.115-4.171m1.545-2.377-13.268,5.471v5.385l13.707,5.365-.439-16.221Z" transform="translate(-1101.911 -323.471)"/></g><g transform="translate(0 5.471)"><path class="b" d="M1096.142,348.622h-2.271v5.385h2.271v-5.385Z" transform="translate(-1093.871 -348.622)"/></g><g transform="translate(6.906 0)"><g transform="translate(0.804 0.804)"><path class="a" d="M1136.619,341.781a7.306,7.306,0,1,1,7.307-7.306A7.315,7.315,0,0,1,1136.619,341.781Z" transform="translate(-1129.312 -327.168)"/></g><path class="b" d="M1133.728,325.079a6.5,6.5,0,1,1-6.5,6.5,6.509,6.509,0,0,1,6.5-6.5m0-1.608a8.111,8.111,0,1,0,8.111,8.111,8.111,8.111,0,0,0-8.111-8.111Z" transform="translate(-1125.617 -323.471)"/><g transform="translate(4.621 4.621)"><circle class="c" cx="2.904" cy="2.904" r="2.904" transform="translate(0 5.654) rotate(-76.8)"/></g></g></g><g transform="translate(1095.784 333.7)"><rect class="b" width="1.608" height="7.692" transform="translate(0 0)"/></g></g></svg>