<svg xmlns="http://www.w3.org/2000/svg" width="46.97" height="37.634" viewBox="0 0 46.97 37.634">
  <g id="Grupo_219" data-name="Grupo 219" transform="translate(-694.553 -77.198)">
    <g id="Grupo_116" data-name="Grupo 116" transform="translate(738.645 104.174)">
      <path id="Trazado_78" data-name="Trazado 78" d="M795.875,139.189" transform="translate(-795.875 -139.189)" fill="none" stroke="#004e77" stroke-miterlimit="10" stroke-width="4.498"/>
    </g>
    <g id="Grupo_121" data-name="Grupo 121" transform="translate(694.553 82.816)">
      <g id="Grupo_117" data-name="Grupo 117" transform="translate(0 0)">
        <path id="Trazado_79" data-name="Trazado 79" d="M733.758,93.471V118.76H697.916V93.471h35.842m3.363-3.363H694.553v32.016h42.569V90.108Z" transform="translate(-694.553 -90.108)" fill="#005077"/>
      </g>
      <g id="Grupo_118" data-name="Grupo 118" transform="translate(0.872 0.963)">
        <path id="Trazado_80" data-name="Trazado 80" d="M717,116.672l-20.44-22.065,2.468-2.286,17.965,19.393,17.554-19.056,2.474,2.279Z" transform="translate(-696.558 -92.322)" fill="#005077"/>
      </g>
      <g id="Grupo_119" data-name="Grupo 119" transform="translate(1.747 14.341)">
        <rect id="Rect치ngulo_15" data-name="Rect치ngulo 15" width="18.301" height="3.363" transform="translate(0 13.551) rotate(-47.771)" fill="#005077"/>
      </g>
      <g id="Grupo_120" data-name="Grupo 120" transform="translate(25.384 14.463)">
        <rect id="Rect치ngulo_16" data-name="Rect치ngulo 16" width="3.364" height="19.018" transform="translate(0 2.393) rotate(-45.356)" fill="#005077"/>
      </g>
    </g>
    <g id="Grupo_123" data-name="Grupo 123" transform="translate(725.534 77.198)">
      <g id="Grupo_122" data-name="Grupo 122" transform="translate(0)">
        <circle id="Elipse_23" data-name="Elipse 23" cx="6.638" cy="6.638" r="6.638" transform="matrix(0.231, -0.973, 0.973, 0.231, 0, 12.917)" fill="#c60c30"/>
      </g>
    </g>
  </g>
</svg>
