<svg id="Grupo_1027" data-name="Grupo 1027" xmlns="http://www.w3.org/2000/svg" width="28.803" height="28.9" viewBox="0 0 28.803 28.9">
  <path id="youtube-subscribe-bell" d="M6.951,3679.216l2.066,2.066a12.2,12.2,0,0,0-5.128,9.273H1A15.06,15.06,0,0,1,6.951,3679.216Zm16.9,0a15.153,15.153,0,0,1,5.951,11.339H26.914a12.271,12.271,0,0,0-5.113-9.273Zm-6.283,1.95v.982c4.131.982,6.5,4.695,6.5,9.129v7.222l2.889,2.889v1.444H3.846v-1.444l2.889-2.889v-7.222c0-4.449,2.354-8.147,6.5-9.129v-.982a2.167,2.167,0,0,1,4.334,0Zm-5.07,23.112h5.778a2.9,2.9,0,0,1-.217,1.126,2.931,2.931,0,0,1-2.08,1.7,2.523,2.523,0,0,1-.578.059,2.91,2.91,0,0,1-2.9-2.889Z" transform="translate(-1 -3678.268)" fill="#005077" fill-rule="evenodd"/>
  <g id="Grupo_991" data-name="Grupo 991" transform="translate(10.639 0)">
    <g id="Grupo_122" data-name="Grupo 122" transform="translate(0 0)">
      <ellipse id="Elipse_23" data-name="Elipse 23" cx="3.126" cy="3.126" rx="3.126" ry="3.126" transform="matrix(0.231, -0.973, 0.973, 0.231, 0, 6.082)" fill="#c60c30"/>
    </g>
  </g>
</svg>
