<svg xmlns="http://www.w3.org/2000/svg" width="37.958" height="37.499" viewBox="0 0 37.958 37.499">
  <g id="Grupo_110" data-name="Grupo 110" transform="translate(-696.301 -312.253)">
    <g id="Grupo_104" data-name="Grupo 104" transform="translate(710.366 312.253)">
      <g id="Grupo_103" data-name="Grupo 103" transform="translate(0 0)">
        <circle id="Elipse_21" data-name="Elipse 21" cx="5.707" cy="5.707" r="5.707" fill="#c60c30"/>
      </g>
    </g>
    <g id="Grupo_109" data-name="Grupo 109" transform="translate(696.301 319.024)">
      <g id="Grupo_105" data-name="Grupo 105" transform="translate(0 0)">
        <path id="Trazado_73" data-name="Trazado 73" d="M699.445,335.206l12.668,5.675v15.292l-12.668-5.811V335.206m-3.143-4.857v22.033l18.955,8.7V338.84L696.3,330.349Z" transform="translate(-696.301 -330.349)" fill="#005077"/>
      </g>
      <g id="Grupo_108" data-name="Grupo 108" transform="translate(19.003 0)">
        <g id="Grupo_106" data-name="Grupo 106" transform="translate(1.987 3.065)">
          <path id="Trazado_74" data-name="Trazado 74" d="M752.273,345.255l14.98-6.713v17.692l-14.98,6.875Z" transform="translate(-752.273 -338.542)" fill="#005077"/>
        </g>
        <g id="Grupo_107" data-name="Grupo 107">
          <path id="Trazado_75" data-name="Trazado 75" d="M761.943,336.49v13.337l-11.006,5.049V341.42l11.006-4.93m3.974-6.141-18.954,8.491v22.237l18.954-8.7V330.349Z" transform="translate(-746.963 -330.349)" fill="#005077"/>
        </g>
      </g>
    </g>
  </g>
</svg>
