<svg xmlns="http://www.w3.org/2000/svg" width="20.756" height="22.505" viewBox="0 0 20.756 20.505"><defs><style>.a{fill:#c60c30;}.b{fill:#005077;}</style></defs><g transform="translate(-957.765 -6324.199)"><g transform="translate(957.765 6324.199)"><g transform="translate(7.691 0)"><g transform="translate(0 0)"><circle class="a" cx="3.121" cy="3.121" r="3.121"/></g></g><g transform="translate(0 3.702)"><g transform="translate(0 0)"><path class="b" d="M698.02,333l6.927,3.1v8.362l-6.927-3.178V333m-1.719-2.656V342.4l10.365,4.755v-12.16L696.3,330.349Z" transform="translate(-696.301 -330.349)"/></g><g transform="translate(10.391 0)"><g transform="translate(1.086 1.676)"><path class="b" d="M752.273,342.213l8.192-3.671v9.674l-8.192,3.759Z" transform="translate(-752.273 -338.542)"/></g><path class="b" d="M755.155,333.707V341l-6.018,2.761V336.4l6.018-2.7m2.173-3.358-10.365,4.643v12.16l10.365-4.755V330.349Z" transform="translate(-746.963 -330.349)"/></g></g></g></g></svg>