<svg xmlns="http://www.w3.org/2000/svg" width="193.542" height="20.278" viewBox="0 0 193.542 20.278">
  <g id="g1148" transform="translate(-124.963 -176.45)">
    <path id="path867-8" d="M364.538,181.251v2.095h2.174v12.031h-2.176v2.095h14.133v-6.606h-1.881s-.064.5-.13.735c-.287,1.065-.376,2.314-1.144,3.106a1.964,1.964,0,0,1-1.663.669h-3.2v-12.03h2.405v-2.1Z" transform="translate(-60.163 -1.205)" fill="#fff"/>
    <path id="path846-2" d="M159.08,180.625a7.276,7.276,0,0,0-4.009,1.114,8.194,8.194,0,0,0-3.03,3.061,9.335,9.335,0,0,0-1.1,4.346,8.983,8.983,0,0,0,1.128,4.441l0,0v0a8.3,8.3,0,0,0,3.033,3.1,8.709,8.709,0,0,0,4.041,1.083,8.351,8.351,0,0,0,4.141-1.1,9.076,9.076,0,0,0,3.1-3.1,8.821,8.821,0,0,0,1.117-4.4,8.693,8.693,0,0,0-1.117-4.382,8.424,8.424,0,0,0-3.1-3.07A8.084,8.084,0,0,0,159.08,180.625Zm.174,2.388a3.441,3.441,0,0,1,1.982.589,3.74,3.74,0,0,1,1.371,1.85h0v0a11.17,11.17,0,0,1,.531,3.871,9.693,9.693,0,0,1-.568,3.644l0,0v0a3.828,3.828,0,0,1-1.374,1.831,3.52,3.52,0,0,1-2.008.562,3.4,3.4,0,0,1-2.738-1.256c-.669-.756-1.148-2.41-1.148-4.977,0-2.354.1-3.52,1.138-4.8a3.985,3.985,0,0,1,2.814-1.328Z" transform="translate(-6.524 -1.048)" fill="#fff"/>
    <path id="path854-3" d="M233.838,181.251l.01,2.095h2.559v12.03h-2.58v2.095h8.4a11.674,11.674,0,0,0,3.332-.388h0a8.534,8.534,0,0,0,2.928-1.6,6.492,6.492,0,0,0,1.829-2.148,9.929,9.929,0,0,0,.749-4.033,7.631,7.631,0,0,0-1.507-4.937,6.2,6.2,0,0,0-2.455-1.96,14.177,14.177,0,0,0-4.886-1.156Zm8.611,2.2a3.672,3.672,0,0,1,2.96,1.508c.749.933,1.212,2.23,1.212,4.649a9.415,9.415,0,0,1-.573,3.662v0a2.8,2.8,0,0,1-1.052,1.28,5,5,0,0,1-2.765.823h-1.858V183.345Z" transform="translate(-27.339 -1.205)" fill="#fff"/>
    <path id="path856-6" d="M256.734,181.251v2.094h2.226v12.031h-2.226v2.095h15.484v-6.347h-2.133a11.757,11.757,0,0,1-.191,1.194c-.133.5-.23,1.9-.885,2.483a3.364,3.364,0,0,1-2.459.574h-3.669v-5.251h.72a2.813,2.813,0,0,1,1.7.438l0,0,.006,0a1.587,1.587,0,0,1,.562,1.358l.029.646h2.15V186.08h-2.148l-.031.495a1.422,1.422,0,0,1-.554,1.22h0l0,0a2.564,2.564,0,0,1-1.582.43h-.852v-4.88h3.669a3.131,3.131,0,0,1,2.315.59,3.949,3.949,0,0,1,.813,1.949,11.756,11.756,0,0,1,.191,1.194H272v-5.828Z" transform="translate(-33.091 -1.206)" fill="#fff"/>
    <path id="path858-6" d="M279.089,181.251v2.095h2.135v12.031l-2.135.018v2.077h6.59v-2.095h-2.317V184.809l7.779,12.661h4.081V183.346h2.116v-2.095H290.9v2.095h2.125v9.59l-7.111-11.685Z" transform="translate(-38.705 -1.206)" fill="#fff"/>
    <path id="path860-6" d="M311.986,180.625a7.637,7.637,0,0,0-3.965,1.1,9.242,9.242,0,0,0-3.01,3.228v0l0,0a9.469,9.469,0,0,0-1.145,4.543,8.393,8.393,0,0,0,1.127,4.253v0l0,0a8.105,8.105,0,0,0,3.042,2.98,9.22,9.22,0,0,0,4.148,1.033,7.067,7.067,0,0,0,4.715-1.626,6.729,6.729,0,0,0,2.283-4.458l.127-.992h-2.515l-.127.727a4.438,4.438,0,0,1-1.449,2.824h0v0a3.973,3.973,0,0,1-2.735.929,3.394,3.394,0,0,1-2.837-1.161,6.794,6.794,0,0,1-1.263-4.486c0-2.53.451-4.548,1.1-5.382a3.043,3.043,0,0,1,2.626-1.312,3.719,3.719,0,0,1,2.806,1.2l0,0a7.877,7.877,0,0,1,1.295,2.276,8.658,8.658,0,0,1,.293.958h2.393v-6.616h-2.206l-.436,1.936a6,6,0,0,0-1.821-1.364,7.5,7.5,0,0,0-2.444-.6Z" transform="translate(-44.927 -1.048)" fill="#fff"/>
    <path id="path862-3" d="M326.156,181.276v2.076h2.28v12.031h-2.28v2.095h8.451v-2.095h-2.265V183.352h2.265v-2.076Z" transform="translate(-50.525 -1.212)" fill="#fff"/>
    <path id="path864-1" d="M345.594,181.25l-.232.535L340.4,195.376h-1.623v2.095h6.206v-2.095h-2.191l1.111-3.1H349.4l1.045,3.1h-2.29v2.095h8.587v-2.095h-1.891l-5.082-14.125Zm1.142,3.1,2.032,6.036-4.2.02Z" transform="translate(-53.693 -1.205)" fill="#fff"/>
    <path id="path1047-5" d="M220.717,181.251v2.095H223v12.031h-2.28v2.095h8.45v-2.095H226.9V183.346h2.264v-2.095Z" transform="translate(-24.046 -1.206)" fill="#fff"/>
    <path id="path1049-1" d="M199.1,181.251v2.095h2.226v12.03H199.1v2.1h8.911l0-2.1h-2.76v-4.963h.618a2.813,2.813,0,0,1,1.7.438l0,0,.005,0a1.771,1.771,0,0,1,.562,1.439l.029.646h1.967v-6.678h-1.964l-.031.5a1.637,1.637,0,0,1-.554,1.322h0l0,0a2.564,2.564,0,0,1-1.582.43h-.75v-5.172h3.383c1.376,0,1.859.131,2.4.765a4.629,4.629,0,0,1,.813,1.748,8.812,8.812,0,0,1,.191,1.281h2.168v-5.889Z" transform="translate(-18.618 -1.206)" fill="#fff"/>
    <path id="path1070-4" d="M173.334,181.251v2.095h2.135v12.031h-2.135v2.1h6.59v-2.095h-2.317V184.809l7.78,12.662h4.081V183.346h2.116v-2.095l-6.437.007v2.079l2.125.008v9.59l-7.111-11.685Z" transform="translate(-12.147 -1.206)" fill="#fff"/>
    <path id="Trazado_1" data-name="Trazado 1" d="M143.25,188.965a9.114,9.114,0,0,1-2.927,5.651,8.013,8.013,0,0,1-5.948,2.112,9.824,9.824,0,0,1-5.914-1.914,10.524,10.524,0,0,1-3.5-8,9.988,9.988,0,0,1,3.5-8.117,9.158,9.158,0,0,1,5.688-2.249,7.866,7.866,0,0,1,3.786.959,4.118,4.118,0,0,1,1.564,1.446l.655-2.276h2.7v8.105h-2.778a9.387,9.387,0,0,0-1.69-3.782,5.249,5.249,0,0,0-4.12-1.955c-4.391,0-4.9,5.156-4.9,7.868,0,3.313,1.731,7.221,5.412,7.221a5.054,5.054,0,0,0,3.9-1.63,8.122,8.122,0,0,0,1.712-3.442Z" transform="translate(0 0)" fill="#fff"/>
  </g>
</svg>
