<svg xmlns="http://www.w3.org/2000/svg" width="410" height="40.648" viewBox="0 0 410 40.648">
  <g id="Grupo_2" data-name="Grupo 2" transform="translate(-674.883 -512.945)">
    <g id="g1148" transform="translate(732.194 514.793)">
      <path id="path867-8" d="M930.467,153.637v3.816h3.962v21.924h-3.966v3.816h25.752V171.157h-3.428s-.116.9-.235,1.341c-.523,1.941-.684,4.215-2.085,5.658a3.575,3.575,0,0,1-3.029,1.221l-5.838,0V157.453h4.384v-3.818Z" transform="translate(-603.525 -147.085)" fill="#c60c30"/>
      <path id="path846-2" d="M797.5,153.2a13.271,13.271,0,0,0-7.307,2.029,14.921,14.921,0,0,0-5.52,5.578,16.987,16.987,0,0,0-2,7.921,16.366,16.366,0,0,0,2.053,8.092l.006.006v0a15.1,15.1,0,0,0,5.526,5.651,15.87,15.87,0,0,0,7.364,1.972,15.23,15.23,0,0,0,7.546-2,16.587,16.587,0,0,0,5.641-5.647,16.079,16.079,0,0,0,2.035-8.025,15.846,15.846,0,0,0-2.035-7.988,15.36,15.36,0,0,0-5.647-5.593A14.731,14.731,0,0,0,797.5,153.2Zm.315,4.351a6.277,6.277,0,0,1,3.611,1.073,6.812,6.812,0,0,1,2.5,3.371h.006V162a20.331,20.331,0,0,1,.966,7.053,17.659,17.659,0,0,1-1.033,6.643l-.006,0v.006a6.977,6.977,0,0,1-2.5,3.337,6.422,6.422,0,0,1-3.659,1.024,6.191,6.191,0,0,1-4.988-2.288c-1.221-1.379-2.093-4.392-2.093-9.068,0-4.29.188-6.414,2.073-8.739a7.27,7.27,0,0,1,5.128-2.42Z" transform="translate(-747.218 -147.505)" fill="#c60c30"/>
      <path id="path854-3" d="M840.04,153.635l.022,3.818h4.662v21.922l-4.7,0v3.816h15.311a21.3,21.3,0,0,0,6.073-.706h.006a15.575,15.575,0,0,0,5.335-2.913,11.837,11.837,0,0,0,3.333-3.915,18.093,18.093,0,0,0,1.365-7.351,13.91,13.91,0,0,0-2.747-9,11.32,11.32,0,0,0-4.473-3.572,25.852,25.852,0,0,0-8.9-2.106Zm15.693,4.012a6.689,6.689,0,0,1,5.392,2.749c1.365,1.7,2.207,4.063,2.207,8.471a17.192,17.192,0,0,1-1.042,6.674v0a5.091,5.091,0,0,1-1.919,2.331,9.109,9.109,0,0,1-5.039,1.5h-3.384V157.453Z" transform="translate(-691.458 -147.085)" fill="#c60c30"/>
      <path id="path856-6" d="M855.871,153.636v3.816h4.059v21.922h-4.059v3.818h28.217V171.627H880.2a21.442,21.442,0,0,1-.347,2.175c-.243.905-.42,3.459-1.613,4.524-1.144,1.022-2.5,1.047-4.481,1.047h-6.686v-9.567h1.312a5.122,5.122,0,0,1,3.1.8l.006.008.01.008a2.887,2.887,0,0,1,1.024,2.475l.053,1.177H876.5V162.436h-3.915l-.057.9a2.59,2.59,0,0,1-1.01,2.221h0l-.006.008a4.672,4.672,0,0,1-2.884.783h-1.552v-8.893h6.686c1.982,0,3.12.126,4.216,1.075.972.838,1.241,2.649,1.483,3.552a21.758,21.758,0,0,1,.349,2.177h3.885V153.642Z" transform="translate(-676.048 -147.084)" fill="#c60c30"/>
      <path id="path858-6" d="M871.339,153.637v3.816h3.891v21.924l-3.891.034v3.783h12.009v-3.816h-4.221V160.12L893.3,183.193h7.437v-25.74H904.6v-3.818l-11.729,0v3.816h3.872V174.93l-12.958-21.293Z" transform="translate(-661.009 -147.085)" fill="#c60c30"/>
      <path id="path860-6" d="M903.285,153.2a13.918,13.918,0,0,0-7.225,2,16.828,16.828,0,0,0-5.487,5.885v0l0,.006a17.244,17.244,0,0,0-2.089,8.28,15.3,15.3,0,0,0,2.055,7.749v0l0,.006a14.8,14.8,0,0,0,5.544,5.43,16.822,16.822,0,0,0,7.56,1.884,12.876,12.876,0,0,0,8.591-2.964,12.251,12.251,0,0,0,4.161-8.124l.233-1.807h-4.583l-.231,1.325a8.1,8.1,0,0,1-2.643,5.146h0v0a7.237,7.237,0,0,1-4.984,1.7,6.188,6.188,0,0,1-5.169-2.116c-1.464-1.734-2.3-4.388-2.3-8.175,0-4.613.822-8.289,2-9.808a5.546,5.546,0,0,1,4.787-2.392,6.773,6.773,0,0,1,5.112,2.183l.006,0a14.349,14.349,0,0,1,2.359,4.148,15.75,15.75,0,0,1,.535,1.745h4.359V153.254h-4.019l-.795,3.528a10.95,10.95,0,0,0-3.317-2.483,13.69,13.69,0,0,0-4.455-1.1Z" transform="translate(-644.343 -147.505)" fill="#c60c30"/>
      <path id="path862-3" d="M903.907,153.653v3.783h4.154v21.924h-4.154v3.816h15.4v-3.816h-4.126V157.436h4.126v-3.783Z" transform="translate(-629.345 -147.068)" fill="#c60c30"/>
      <path id="path864-1" d="M925.066,153.635l-.422.976-9.051,24.766h-2.956v3.816h11.309v-3.816h-3.994l2.026-5.654h10.031l1.905,5.654H929.74v3.816h15.648v-3.816h-3.448l-9.26-25.742Zm2.081,5.645,3.7,11-7.654.037Z" transform="translate(-620.857 -147.085)" fill="#c60c30"/>
      <path id="path1047-5" d="M830.95,153.636v3.816H835.1v21.924H830.95v3.816h15.4v-3.816h-4.126V157.452h4.126v-3.816Z" transform="translate(-700.278 -147.084)" fill="#c60c30"/>
      <path id="path1049-1" d="M815.994,153.636v3.816h4.057v21.922h-4.057v3.818h16.238l-.008-3.816-5.029,0v-9.043h1.126a5.114,5.114,0,0,1,3.106.8l0,.006.012.008a3.239,3.239,0,0,1,1.023,2.623l.051,1.179H836.1V162.775h-3.579l-.057.9a2.99,2.99,0,0,1-1.01,2.408h-.006l-.006.008a4.681,4.681,0,0,1-2.883.783h-1.367v-9.425h6.167c2.507,0,3.387.239,4.377,1.394a8.437,8.437,0,0,1,1.481,3.187,16.2,16.2,0,0,1,.347,2.333h3.953V153.636Z" transform="translate(-714.819 -147.084)" fill="#c60c30"/>
      <path id="path1070-4" d="M798.164,153.637v3.816h3.891v21.924l-3.891,0v3.818h12.009v-3.816H805.95V160.12l14.179,23.073h7.437v-25.74h3.856v-3.818l-11.729.016v3.789l3.871.014V174.93l-12.958-21.293Z" transform="translate(-732.154 -147.085)" fill="#c60c30"/>
      <path id="Caminho_1" data-name="Caminho 1" d="M798.02,173.121c-.692,5.331-3.864,9.23-5.335,10.3-3.209,2.816-6.166,3.848-10.838,3.848-3.744,0-8.333-1.335-10.779-3.489A19.176,19.176,0,0,1,764.7,169.2c0-7.867,3.219-11.968,6.374-14.792a16.692,16.692,0,0,1,10.366-4.1,14.355,14.355,0,0,1,6.9,1.745,7.512,7.512,0,0,1,2.85,2.635l1.2-4.146H797.3v14.768h-5.061a17.114,17.114,0,0,0-3.081-6.891,9.569,9.569,0,0,0-7.508-3.56c-8,0-8.921,9.4-8.921,14.338,0,6.037,3.156,13.159,9.861,13.159,4.118-.162,5.765-1.637,7.1-2.972a14.8,14.8,0,0,0,3.118-6.27Z" transform="translate(-764.695 -150.314)" fill="#c60c30"/>
    </g>
    <g id="Grupo_1" data-name="Grupo 1" transform="translate(674.883 512.945)">
      <path id="Caminho_4" data-name="Caminho 4" d="M20.324,0A20.324,20.324,0,1,1,0,20.324,20.324,20.324,0,0,1,20.324,0Z" transform="translate(0 0)" fill="#c60c30"/>
      <g id="Grupo_1-2" data-name="Grupo 1" transform="translate(6.164 10.662)">
        <path id="Caminho_2" data-name="Caminho 2" d="M739.139,172.989v-3.5l6.911-6.25a6.573,6.573,0,0,0,1.053-1.274,2.719,2.719,0,0,0,.4-1.45,2.059,2.059,0,0,0-.6-1.538,2.413,2.413,0,0,0-3.317.152,3.32,3.32,0,0,0-.789,1.941l-4.033-.552a6.218,6.218,0,0,1,2.229-4.209,6.435,6.435,0,0,1,2.067-1.134,7.714,7.714,0,0,1,2.467-.391,8.71,8.71,0,0,1,2.379.325,6.167,6.167,0,0,1,2.053,1,4.98,4.98,0,0,1,1.44,1.7,5.111,5.111,0,0,1,.538,2.4,5.468,5.468,0,0,1-.25,1.716,5.667,5.667,0,0,1-.688,1.414,7.955,7.955,0,0,1-1,1.215q-.562.565-1.164,1.114l-4.108,3.657h7.238v3.657Z" transform="translate(-738.762 -154.783)" fill="#fff"/>
        <path id="Caminho_3" data-name="Caminho 3" d="M759.611,166.9a6.391,6.391,0,0,1-.576,2.816,5.632,5.632,0,0,1-1.538,1.966,6.675,6.675,0,0,1-2.193,1.164,8.5,8.5,0,0,1-4.82.077,7.329,7.329,0,0,1-1.978-.89,6.009,6.009,0,0,1-1.528-1.416,5.7,5.7,0,0,1-.939-1.889l3.832-1.177a2.98,2.98,0,0,0,1.039,1.527,3.021,3.021,0,0,0,3.682-.049,2.36,2.36,0,0,0,.789-1.929,2.433,2.433,0,0,0-.328-1.3,2.522,2.522,0,0,0-.838-.838,3.506,3.506,0,0,0-1.164-.44,6.968,6.968,0,0,0-1.3-.124,12.686,12.686,0,0,0-2.166.213,12.412,12.412,0,0,0-2.166.564l.424-10.143H758.71v3.605h-7.138l-.15,2.807a5.229,5.229,0,0,1,.889-.138c.325-.026.621-.037.89-.037a8.709,8.709,0,0,1,2.5.351,5.726,5.726,0,0,1,2.039,1.063,5.1,5.1,0,0,1,1.367,1.765A5.669,5.669,0,0,1,759.611,166.9Z" transform="translate(-731.688 -154.549)" fill="#fff"/>
      </g>
    </g>
  </g>
</svg>
