<svg xmlns="http://www.w3.org/2000/svg" width="22.95" height="23.451" viewBox="0 0 22.95 23.451">
  <g id="Grupo_195" data-name="Grupo 195" transform="translate(-541.276 -8037.672)">
    <g id="Grupo_193" data-name="Grupo 193" transform="translate(541.276 8037.672)">
      <path id="Trazado_106" data-name="Trazado 106" d="M11.475,0A11.475,11.475,0,1,1,0,11.475,11.475,11.475,0,0,1,11.475,0Z" transform="translate(0 0)" fill="#fff"/>
    </g>
    <path id="Intersección_1" data-name="Intersección 1" d="M9.468,22.776V14.883H6.537V11.547H9.468V9c0-2.893,1.724-4.492,4.361-4.492a17.806,17.806,0,0,1,2.584.225V7.577H14.957a1.669,1.669,0,0,0-1.882,1.8v2.165h3.2l-.512,3.338H13.077V22.84a11.608,11.608,0,0,1-3.609-.064Z" transform="translate(541.276 8037.672)" fill="#005077" stroke="rgba(0,0,0,0)" stroke-miterlimit="10" stroke-width="1"/>
  </g>
</svg>
