<svg xmlns="http://www.w3.org/2000/svg" width="37.986" height="30.436" viewBox="0 0 37.986 30.436">
  <g id="Grupo_124" data-name="Grupo 124" transform="translate(-694.553 -77.198)">
    <g id="Grupo_116" data-name="Grupo 116" transform="translate(730.212 99.015)">
      <path id="Caminho_78" data-name="Caminho 78" d="M795.875,139.189" transform="translate(-795.875 -139.189)" fill="none" stroke="#004e77" stroke-miterlimit="10" stroke-width="4.498"/>
    </g>
    <g id="Grupo_121" data-name="Grupo 121" transform="translate(694.553 81.741)">
      <g id="Grupo_117" data-name="Grupo 117" transform="translate(0 0)">
        <path id="Caminho_79" data-name="Caminho 79" d="M726.26,92.828V113.28H697.273V92.828H726.26m2.72-2.72H694.553V116H728.98V90.108Z" transform="translate(-694.553 -90.108)" fill="#fff"/>
      </g>
      <g id="Grupo_118" data-name="Grupo 118" transform="translate(0.706 0.779)">
        <path id="Caminho_80" data-name="Caminho 80" d="M713.088,112.015l-16.53-17.844,2-1.849,14.529,15.684,14.2-15.412,2,1.843Z" transform="translate(-696.558 -92.322)" fill="#fff"/>
      </g>
      <g id="Grupo_119" data-name="Grupo 119" transform="translate(1.413 11.598)">
        <rect id="Ret창ngulo_15" data-name="Ret창ngulo 15" width="14.801" height="2.72" transform="translate(0 10.959) rotate(-47.771)" fill="#fff"/>
      </g>
      <g id="Grupo_120" data-name="Grupo 120" transform="translate(20.529 11.697)">
        <rect id="Ret창ngulo_16" data-name="Ret창ngulo 16" width="2.72" height="15.38" transform="translate(0 1.935) rotate(-45.356)" fill="#fff"/>
      </g>
    </g>
    <g id="Grupo_123" data-name="Grupo 123" transform="translate(719.609 77.198)">
      <g id="Grupo_122" data-name="Grupo 122" transform="translate(0 0)">
        <circle id="Elipse_23" data-name="Elipse 23" cx="5.369" cy="5.369" r="5.369" transform="matrix(0.231, -0.973, 0.973, 0.231, 0, 10.446)" fill="#c60c30"/>
      </g>
    </g>
  </g>
</svg>
