<svg id="cloud" xmlns="http://www.w3.org/2000/svg" width="22.651" height="18.076" viewBox="0 0 22.651 18.076">
  <path id="Caminho_5" data-name="Caminho 5" d="M64.2,82.493a3.554,3.554,0,0,0-1.607-1.24v-.184A6.734,6.734,0,0,0,51.9,75.586a6.72,6.72,0,0,0-2.471,3.288,4.425,4.425,0,0,0-2.517,1.4A4.217,4.217,0,0,0,45.7,83.3a4.547,4.547,0,0,0,4.528,4.528h11.2a3.418,3.418,0,0,0,3.408-3.408,3.2,3.2,0,0,0-.634-1.929m-1.167,3.518a2.257,2.257,0,0,1-1.607.652h-11.2a3.329,3.329,0,0,1-2.407-.983,3.2,3.2,0,0,1-1-2.379,3.157,3.157,0,0,1,.909-2.26A3.455,3.455,0,0,1,49.9,79.949h.423l.092-.423a5.675,5.675,0,0,1,5.41-4.06,5.582,5.582,0,0,1,5.6,5.6v.56l-.046.514.514.092a2.071,2.071,0,0,1,1.3.772,2.206,2.206,0,0,1,.514,1.424,2.105,2.105,0,0,1-.68,1.58" transform="translate(-45.7 -69.753)" fill="#717171"/>
  <g id="Grupo_4" data-name="Grupo 4" transform="translate(10.581 0)">
    <path id="Caminho_6" data-name="Caminho 6" d="M192.5,56.473a4,4,0,0,1,2.884,1.02,3.872,3.872,0,0,1,1.323,2.746,3.988,3.988,0,0,1-1.3,3.123.422.422,0,0,1-.377.165c-.285.037-.45-.11-.487-.432a.523.523,0,0,1,.211-.432,2.78,2.78,0,0,0,.974-2.37,2.911,2.911,0,0,0-.992-2.131,2.774,2.774,0,0,0-2.177-.726,2.568,2.568,0,0,0-1.451.432.366.366,0,0,1-.321.165c-.321.037-.487-.11-.487-.432a.388.388,0,0,1,.211-.432,3.654,3.654,0,0,1,1.984-.7" transform="translate(-187.599 -53.562)" fill="#717171"/>
    <g id="Grupo_3" data-name="Grupo 3" transform="translate(0 0)">
      <path id="Caminho_7" data-name="Caminho 7" d="M161.65,42.565l.919.919a.418.418,0,0,1,.028.643.378.378,0,0,1-.615,0l-.919-.919a.418.418,0,0,1-.028-.643.369.369,0,0,1,.615,0" transform="translate(-160.897 -40.783)" fill="#717171"/>
      <path id="Caminho_8" data-name="Caminho 8" d="M212.5,26.527v-1.3a.432.432,0,0,1,.863,0v1.3a.432.432,0,0,1-.863,0" transform="translate(-207.76 -24.8)" fill="#717171"/>
      <path id="Caminho_9" data-name="Caminho 9" d="M252.346,44.195a.378.378,0,0,1-.615,0,.43.43,0,0,1-.028-.643l.918-.919a.455.455,0,0,1,.643.643l-.919.919" transform="translate(-243.243 -40.852)" fill="#717171"/>
      <path id="Caminho_10" data-name="Caminho 10" d="M252.346,133.422l.919.919a.378.378,0,0,1,0,.615.406.406,0,0,1-.643-.028l-.918-.919c-.184-.184-.175-.377.028-.6a.383.383,0,0,1,.615.009" transform="translate(-243.243 -123.3)" fill="#717171"/>
      <path id="Caminho_11" data-name="Caminho 11" d="M269.982,93.4a.432.432,0,1,1,0,.863h-1.35a.432.432,0,1,1,0-.863h1.35" transform="translate(-258.344 -87.099)" fill="#717171"/>
    </g>
  </g>
</svg>
