<svg id="g10" xmlns="http://www.w3.org/2000/svg" width="71.41" height="27.59" viewBox="0 0 110.641 42.75">
  <g id="g12">
    <path id="path14" d="M140.608-172.369a.657.657,0,0,1,.7-.7h6.03c1.8,0,3.837.783,3.837,2.9a1.982,1.982,0,0,1-1.1,1.879,2.686,2.686,0,0,1,1.566,2.506c0,2.036-1.958,3.133-3.994,3.133h-6.343a.7.7,0,0,1-.7-.7Zm2.741,1.175v2.114h3.994a.944.944,0,0,0,1.018-1.018,1.055,1.055,0,0,0-1.018-1.1Zm0,3.994v2.584h4.307a1.047,1.047,0,0,0,1.1-1.175c0-.861-.313-1.409-1.1-1.409h-4.307" transform="translate(-114.539 183.858)" fill="#fff"/>
    <path id="path16" d="M266.453-162.659a.657.657,0,0,1-.7-.7v-9.006a.623.623,0,0,1,.7-.7h2.036a1.264,1.264,0,0,1,1.1.7l4.385,6.656v-6.656a.657.657,0,0,1,.7-.7h1.253a.657.657,0,0,1,.7.7v9.006a.7.7,0,0,1-.7.7h-2.506a1.331,1.331,0,0,1-.94-.7l-4.15-6.265v6.265a.64.64,0,0,1-.626.7h-1.253" transform="translate(-216.423 183.858)" fill="#fff"/>
    <path id="path18" d="M333.435-173.917h1.645c2.036,0,4.307,1.1,4.307,3.289a.847.847,0,0,1-.862.861h-.861c-.391,0-.783-.313-1.1-.861a1.639,1.639,0,0,0-1.723-1.253h-1.253c-2.193,0-2.741.861-2.741,3.289,0,2.506.548,3.21,2.741,3.21h1.331a1.731,1.731,0,0,0,1.8-1.1c.313-.7.7-.861,1.1-.861h.862a.792.792,0,0,1,.783.861c0,2.036-2.192,3.133-4.229,3.133h-1.8c-3.6,0-5.325-1.645-5.325-5.247,0-3.68,1.722-5.325,5.325-5.325" transform="translate(-267.194 184.544)" fill="#fff"/>
    <path id="path20" d="M395.843-173.917c3.524,0,5.638,1.488,5.638,5.325,0,3.759-2.114,5.247-5.638,5.247-3.759,0-5.795-1.488-5.795-5.247C390.048-172.429,392.084-173.917,395.843-173.917Zm-3.054,5.325c0,2.114.861,3.289,3.054,3.289s2.976-1.175,2.976-3.289c0-2.193-.783-3.367-2.976-3.367s-3.054,1.175-3.054,3.367" transform="translate(-317.622 184.544)" fill="#fff"/>
    <path id="path22" d="M141.312-95.665a.657.657,0,0,1-.7-.7v-9.006a.7.7,0,0,1,.7-.7h2.193a1.1,1.1,0,0,1,.94.7l4.464,6.734v-6.891c0-.235.392-.548.626-.548h1.409a.827.827,0,0,1,.7.7v9.006a.75.75,0,0,1-.7.7h-2.506a1.363,1.363,0,0,1-1.1-.7l-3.994-6.265v6.265a.688.688,0,0,1-.626.7h-1.409" transform="translate(-114.54 129.315)" fill="#fff"/>
    <path id="path24" d="M271.074-106.922H272.8c1.879,0,4.072,1.1,4.072,3.21a.758.758,0,0,1-.7.783h-.94c-.392,0-.7-.157-.94-.783a1.91,1.91,0,0,0-1.8-1.1h-1.409c-2.036,0-2.584.783-2.584,3.132,0,2.428.548,3.289,2.584,3.289h1.566a2.256,2.256,0,0,0,1.8-1.253.952.952,0,0,1,.94-.7h.94a.629.629,0,0,1,.7.7c0,2.192-2.193,3.289-4.15,3.289h-1.8c-3.524,0-5.325-1.644-5.325-5.325,0-3.6,1.8-5.246,5.325-5.246" transform="translate(-216.423 130)" fill="#fff"/>
    <path id="path26" d="M330.217-105.375a.657.657,0,0,1,.7-.7h1.331a.7.7,0,0,1,.7.7v9.006a.657.657,0,0,1-.7.7h-1.331a.623.623,0,0,1-.7-.7v-9.006" transform="translate(-268.91 129.315)" fill="#fff"/>
    <path id="path28" d="M353.707-106.922c3.524,0,5.638,1.566,5.638,5.246,0,3.837-2.114,5.325-5.638,5.325-3.6,0-5.795-1.488-5.795-5.325C347.912-105.356,350.105-106.922,353.707-106.922Zm-3.054,5.246c0,2.193.862,3.446,3.054,3.446s2.976-1.253,2.976-3.446-.783-3.289-2.976-3.289-3.054,1.1-3.054,3.289" transform="translate(-283.317 130)" fill="#fff"/>
    <path id="path30" d="M416.034-95.665a.623.623,0,0,1-.7-.7v-9.006a.657.657,0,0,1,.7-.7h2.192c.235,0,.627.313.94.7l4.386,6.734v-6.891a.7.7,0,0,1,.7-.548h1.253a.64.64,0,0,1,.627.7v9.006c0,.47-.235.7-.627.7H423.16a1.265,1.265,0,0,1-1.1-.7l-4.15-6.265v6.265a.623.623,0,0,1-.7.7h-1.175" transform="translate(-338.204 129.315)" fill="#fff"/>
    <path id="path32" d="M545.455-106.08a.7.7,0,0,1,.7.7V-97.7h6.264a.623.623,0,0,1,.7.7v.627a.623.623,0,0,1-.7.7h-8.379c-.392,0-.627-.235-.627-.7v-9.006a.64.64,0,0,1,.627-.7h1.409" transform="translate(-442.488 129.315)" fill="#fff"/>
    <path id="path34" d="M210.972-164.05l-1.645-6.97c-.548-2.349-2.506-2.9-4.307-2.9-1.88,0-3.837.548-4.385,2.9l-1.645,6.97a.5.5,0,0,0,.392.7h1.409a.827.827,0,0,0,.7-.7l.391-1.8h6.03l.548,1.8a.757.757,0,0,0,.7.7H210.5A.54.54,0,0,0,210.972-164.05Zm-5.8-3.994h-2.9c.446-1.438.706-3.837,2.584-3.837,2.052,0,2.135,2.3,2.505,3.837h-2.193" transform="translate(-162.037 184.544)" fill="#fff"/>
    <path id="path36" d="M213.765-96.369l-1.644-6.97c-.548-2.349-2.349-2.741-4.307-2.741-1.723,0-3.681.391-4.229,2.741l-1.644,6.97a.53.53,0,0,0,.392.7h1.409c.235,0,.548-.392.7-.7l.392-1.879h6.029l.392,1.879c.157.313.47.7.861.7h1.253A.529.529,0,0,0,213.765-96.369Zm-5.638-4.072h-2.9c.431-1.341.732-3.68,2.506-3.68h.078c1.926,0,2.053,2.269,2.506,3.68h-2.193" transform="translate(-164.439 129.314)" fill="#fff"/>
    <path id="path38" d="M488.452-96.369l-1.723-6.97c-.548-2.349-2.271-2.741-4.229-2.741s-3.68.391-4.229,2.741l-1.644,6.97a.49.49,0,0,0,.392.7h1.253c.392,0,.626-.392.783-.7l.392-1.879h6.108l.392,1.879a.831.831,0,0,0,.7.7h1.332C488.3-95.664,488.452-96.056,488.452-96.369Zm-5.638-4.072h-2.9c.39-1.366.6-3.68,2.428-3.68h.156c1.779,0,2.07,2.324,2.506,3.68h-2.192" transform="translate(-388.07 129.314)" fill="#fff"/>
    <path id="path40" d="M16.544-231.043l-7.2,2.662a.835.835,0,0,0-.406.459c-.282,1.164-4.875,16.553-8.365,22.016-.329.44-.274.576,0,.783l2.349,1.644c.223.181.626.111.783-.391l7.283-23.022a.706.706,0,0,1,.626-.548l2.193-.7a.475.475,0,0,1,.548.548s-1.1,5.638-2.192,14.017a54.316,54.316,0,0,1-3.736,13.732.574.574,0,0,0,.29.755l4.542,3.445a.583.583,0,0,0,.94-.391L17.328-230.5c.056-.5-.3-.715-.783-.548" transform="translate(-0.343 231.098)" fill="#fff"/>
    <path id="path42" d="M99.565-165.158a50.512,50.512,0,0,1-1.644-13.7v-18.794s-.861-2.976-1.018-3.524c-.116-.448-.235-.548-.548-.548-.163.024-.556.055-.729.1a.592.592,0,0,0-.446.525l-1.8,32.341a.73.73,0,0,0,.285.739l4.962,3.411c.55.388,1.041.089.939-.55" transform="translate(-76.082 207.185)" fill="#fff"/>
  </g>
</svg>