<svg xmlns="http://www.w3.org/2000/svg" width="25.592" height="22.505" viewBox="0 0 25.592 20.505"><defs><style>.a{fill:none;stroke:#004e77;stroke-miterlimit:10;stroke-width:4.498px;}.b{fill:#005077;}.c{fill:#c60c30;}</style></defs><g transform="translate(-694.553 -77.198)"><g transform="translate(718.577 91.896)"><path class="a" d="M795.875,139.189" transform="translate(-795.875 -139.189)"/></g><g transform="translate(694.553 80.259)"><g transform="translate(0 0)"><path class="b" d="M715.914,91.941v13.779H696.386V91.941h19.529m1.833-1.833H694.553v17.444h23.194V90.108Z" transform="translate(-694.553 -90.108)"/></g><g transform="translate(0.475 0.525)"><path class="b" d="M707.695,105.589,696.558,93.567l1.345-1.245,9.788,10.567,9.565-10.383,1.348,1.241Z" transform="translate(-696.558 -92.322)"/></g><g transform="translate(0.952 7.814)"><rect class="b" width="9.971" height="1.832" transform="translate(0 7.383) rotate(-47.771)"/></g><g transform="translate(13.831 7.88)"><rect class="b" width="1.833" height="10.362" transform="translate(0 1.304) rotate(-45.356)"/></g></g><g transform="translate(711.433 77.198)"><g transform="translate(0 0)"><circle class="c" cx="3.617" cy="3.617" r="3.617" transform="matrix(0.231, -0.973, 0.973, 0.231, 0, 7.038)"/></g></g></g></svg>