<svg xmlns="http://www.w3.org/2000/svg" width="37.986" height="30.436" viewBox="0 0 26.173 21.005"><defs><style>.a{fill:#005077;stroke:#005077;stroke-width:0.5px;}.b{fill:#c60c30;}</style></defs><g transform="translate(-294.628 -501.639)"><g transform="translate(294.878 501.889)"><g transform="translate(0 0)"><g transform="translate(0 0)"><path class="a" d="M50.25,40.783l-3.4-2.4V34.872A.751.751,0,0,0,46.2,34.2H31.309a.754.754,0,0,0-.647.672v3.482l-3.536,2.429a.593.593,0,0,0-.245.43V54.031a.786.786,0,0,0,.675.675h22.4c.3,0,.405-.351.405-.675V41.218C50.359,41.052,50.386,40.889,50.25,40.783Zm-3.4-1.107,2.32,1.591-2.32,1.755Zm-15.108-4.4H45.77v8.58l-7.013,5.288-7.016-5.288Zm-1.088,4.371v3.4l-2.32-1.782Zm-2.7,2.72,7.554,5.713-7.546,5.106ZM29.249,53.62l7.184-4.826,1.9,1.458a.653.653,0,0,0,.378.136c.106,0,.16-.054.272-.136l2-1.537,7.258,4.9ZM49.27,53l-7.4-4.959,7.394-5.666Z" transform="translate(-26.88 -34.2)"/><path class="a" d="M53.214,57.088h8.634a.544.544,0,1,0,0-1.088H53.214a.544.544,0,1,0,0,1.088Z" transform="translate(-45.654 -50.07)"/><path class="a" d="M62.387,65.474a.544.544,0,0,0-.544-.544H53.214a.544.544,0,0,0,0,1.088h8.634A.544.544,0,0,0,62.387,65.474Z" transform="translate(-45.654 -56.571)"/><path class="a" d="M53.407,41.465c.057-.177.15-.177.207,0l.231.713a.5.5,0,0,0,.443.321h.751c.185,0,.212.09.063.2l-.607.449a.5.5,0,0,0-.177.511l.231.713c.057.177-.016.234-.169.125l-.607-.443a.5.5,0,0,0-.544,0l-.6.454c-.15.109-.226.052-.169-.125l.226-.724a.5.5,0,0,0-.16-.511l-.607-.441c-.152-.109-.122-.2.063-.2h.751a.5.5,0,0,0,.441-.321Z" transform="translate(-45.037 -39.392)"/></g></g></g><g transform="translate(313.598 504.938)"><g transform="translate(0)"><circle class="b" cx="3.602" cy="3.602" r="3.602"/></g></g></g></svg>