<svg xmlns="http://www.w3.org/2000/svg" width="22.95" height="22.95" viewBox="0 0 22.95 22.95"><defs><style>.a{fill:#005077;}.b{fill:#fff;}</style></defs><g transform="translate(-336.919 -144.592)"><circle class="a" cx="11.475" cy="11.475" r="11.475" transform="translate(336.919 144.592)"/><path class="b" d="M354.432,164.416a.7.7,0,0,1-.95.249,10.232,10.232,0,0,0-5.385-1.194,13.349,13.349,0,0,0-2.793.369.7.7,0,0,1-.368-1.34,14.434,14.434,0,0,1,3.08-.417,13.558,13.558,0,0,1,2.967.215,10.009,10.009,0,0,1,3.2,1.168A.7.7,0,0,1,354.432,164.416Z" transform="translate(-1.615 -3.762)"/><path class="b" d="M355.572,160.877a.824.824,0,0,1-1.126.3,12.124,12.124,0,0,0-6.379-1.416,15.831,15.831,0,0,0-3.309.437.823.823,0,0,1-.436-1.588,17.151,17.151,0,0,1,3.649-.494,16.149,16.149,0,0,1,3.516.254,11.861,11.861,0,0,1,3.79,1.384A.824.824,0,0,1,355.572,160.877Z" transform="translate(-1.463 -2.908)"/><path class="b" d="M356.087,157.459a1.006,1.006,0,0,1-.509-.138c-5.144-3.006-11.815-1.219-11.882-1.2a1.01,1.01,0,0,1-.536-1.947,21.024,21.024,0,0,1,4.476-.606,19.741,19.741,0,0,1,4.312.312,14.55,14.55,0,0,1,4.649,1.7,1.01,1.01,0,0,1-.51,1.882Z" transform="translate(-1.183 -1.929)"/></g></svg>