<svg xmlns="http://www.w3.org/2000/svg" width="105.003" height="31.493" viewBox="0 0 105.003 31.493">
  <path id="spotify-1" d="M90.175,1369.145a15.747,15.747,0,1,0,15.747,15.746,15.747,15.747,0,0,0-15.747-15.746Zm7.221,22.711a.981.981,0,0,1-1.35.327c-3.7-2.26-8.352-2.77-13.833-1.518a.981.981,0,1,1-.437-1.913c6-1.371,11.144-.781,15.294,1.755a.981.981,0,0,1,.325,1.35Zm1.927-4.287a1.228,1.228,0,0,1-1.689.4,20.669,20.669,0,0,0-15.691-1.835,1.228,1.228,0,1,1-.713-2.349,22.972,22.972,0,0,1,17.689,2.092,1.227,1.227,0,0,1,.4,1.688Zm.165-4.465c-5.076-3.014-13.448-3.292-18.294-1.821a1.473,1.473,0,1,1-.855-2.819c5.562-1.689,14.809-1.362,20.652,2.106a1.473,1.473,0,0,1-1.5,2.533Zm17.781.578c-2.719-.648-3.2-1.1-3.2-2.06,0-.9.85-1.511,2.115-1.511a6.181,6.181,0,0,1,3.716,1.412.179.179,0,0,0,.252-.04l1.328-1.871a.178.178,0,0,0-.034-.242,8.032,8.032,0,0,0-5.222-1.809c-2.936,0-4.986,1.762-4.986,4.282,0,2.7,1.769,3.66,4.826,4.4,2.6.6,3.041,1.1,3.041,2,0,.995-.888,1.613-2.317,1.613a6.244,6.244,0,0,1-4.329-1.789.187.187,0,0,0-.131-.042.177.177,0,0,0-.122.063l-1.488,1.771a.177.177,0,0,0,.018.247,8.874,8.874,0,0,0,5.993,2.3c3.163,0,5.207-1.729,5.207-4.4.006-2.258-1.346-3.509-4.658-4.314Zm11.82-2.681a4.266,4.266,0,0,0-3.423,1.647V1381.4a.178.178,0,0,0-.178-.178h-2.434a.178.178,0,0,0-.178.178v13.84a.178.178,0,0,0,.178.178h2.434a.178.178,0,0,0,.178-.178v-4.369a4.373,4.373,0,0,0,3.423,1.55c2.548,0,5.127-1.961,5.127-5.71S131.64,1381,129.092,1381Zm2.3,5.712a2.934,2.934,0,0,1-2.86,3.241,3.259,3.259,0,0,1,0-6.483,2.967,2.967,0,0,1,2.86,3.241Zm9.441-5.712a5.723,5.723,0,1,0,5.831,5.712,5.741,5.741,0,0,0-5.831-5.712Zm0,8.972a3.1,3.1,0,0,1-3.061-3.261,3.023,3.023,0,0,1,3.021-3.222,3.106,3.106,0,0,1,3.081,3.263,3.031,3.031,0,0,1-3.041,3.22h0Zm12.837-8.749h-2.679v-2.739a.178.178,0,0,0-.178-.178h-2.434a.179.179,0,0,0-.178.178v2.739h-1.171a.178.178,0,0,0-.177.178v2.092a.178.178,0,0,0,.177.178h1.171v5.414c0,2.188,1.089,3.3,3.236,3.3a4.442,4.442,0,0,0,2.28-.568.178.178,0,0,0,.09-.154v-1.992a.179.179,0,0,0-.258-.16,3.068,3.068,0,0,1-1.429.345c-.781,0-1.13-.355-1.13-1.15v-5.031h2.679a.178.178,0,0,0,.178-.178V1381.4a.173.173,0,0,0-.175-.179Zm9.334.011v-.336c0-.99.379-1.431,1.23-1.431a4.107,4.107,0,0,1,1.372.253.178.178,0,0,0,.234-.17V1377.5a.178.178,0,0,0-.126-.171,6.683,6.683,0,0,0-2.023-.291c-2.249,0-3.437,1.266-3.437,3.66v.515h-1.17a.179.179,0,0,0-.179.178v2.1a.179.179,0,0,0,.179.178h1.17v8.35a.178.178,0,0,0,.178.178h2.434a.179.179,0,0,0,.178-.178v-8.35h2.273l3.482,8.348c-.4.877-.784,1.052-1.315,1.052a2.808,2.808,0,0,1-1.342-.381.183.183,0,0,0-.142-.013.18.18,0,0,0-.105.1l-.825,1.81a.177.177,0,0,0,.077.23,5.127,5.127,0,0,0,2.6.666c1.8,0,2.791-.837,3.667-3.09l4.223-10.914a.178.178,0,0,0-.165-.243h-2.534a.179.179,0,0,0-.169.12l-2.6,7.416-2.844-7.421a.178.178,0,0,0-.166-.115H163Zm-5.412-.011h-2.434a.179.179,0,0,0-.178.178v10.621a.179.179,0,0,0,.178.178h2.434a.179.179,0,0,0,.178-.178V1381.4a.178.178,0,0,0-.179-.178Zm-1.2-4.836a1.746,1.746,0,1,0,1.746,1.745,1.746,1.746,0,0,0-1.746-1.745Zm21.327,8.251a1.718,1.718,0,1,1,1.722-1.723,1.706,1.706,0,0,1-1.722,1.723Zm.009-3.265a1.547,1.547,0,1,0,1.533,1.542,1.532,1.532,0,0,0-1.533-1.542h0Zm.38,1.718.485.678h-.409l-.436-.622h-.375v.622h-.342v-1.8h.8c.418,0,.693.214.693.574a.534.534,0,0,1-.416.546Zm-.29-.811h-.446v.569h.446c.223,0,.356-.109.356-.285s-.133-.284-.355-.284Z" transform="translate(-74.428 -1369.145)" fill="#2ebd59"/>
</svg>
