<svg xmlns="http://www.w3.org/2000/svg" width="119.182" height="25.58" viewBox="0 0 129.182 25.58">
  <g id="Subway_2016_logo" transform="translate(0.001 -0.072)">
    <path id="Trazado_171" data-name="Trazado 171" d="M15.1,3.91c-4.465-.022-4.723.007-6.2.718a7.857,7.857,0,0,0-.866.476A5.632,5.632,0,0,0,6.815,6.295c0,.059-.023.108-.052.108a3.577,3.577,0,0,0-.755,1.417.451.451,0,0,1-.05.231,6.9,6.9,0,0,0-.089,2.709l.144.721a4.038,4.038,0,0,0,.558,1.165c.087.13.184.278.215.329a9.6,9.6,0,0,0,1.5,1.385,12.974,12.974,0,0,0,1.422.864c.074.028.368.178.654.333s.636.33.779.389.624.283,1.068.5c2.375,1.139,2.579,1.257,2.781,1.6a.924.924,0,0,1,.017,1.014c-.079.117-.188.212-.241.212a.18.18,0,0,0-.139.068c-.043.069-4.939.037-7.366-.048L6.18,19.252v-1.26c0-1.082-.012-1.261-.087-1.261-.048,0-.086.026-.086.058a.062.062,0,0,1-.066.058,3.537,3.537,0,0,0-.759.619.715.715,0,0,1-.221.164,3.325,3.325,0,0,0-.5.392,6.741,6.741,0,0,1-.6.486,1.6,1.6,0,0,0-.288.23,3.5,3.5,0,0,1-.65.533.815.815,0,0,0-.227.192c-.1.106-.454.411-.787.678s-.657.539-.72.6A2.809,2.809,0,0,1,.862,21a5.627,5.627,0,0,0-.537.453L0,21.764l.364.338a2.931,2.931,0,0,0,.4.34,4.236,4.236,0,0,1,.49.405,2.742,2.742,0,0,0,.518.4.24.24,0,0,1,.145.1,3.47,3.47,0,0,0,.392.361l.432.354.486.4c.2.17.48.392.615.494a5,5,0,0,1,.446.384,3.147,3.147,0,0,0,.424.345,5.494,5.494,0,0,1,.57.465,1.832,1.832,0,0,0,.414.322c.037,0,.128.077.2.171.261.33.275.274.292-1.137L6.208,24.2l.26.007c.143,0,1.642.012,3.332.019a26.582,26.582,0,0,1,3.073.075,16.283,16.283,0,0,0,2.712-.073,7.815,7.815,0,0,0,1.76-.345,4.14,4.14,0,0,1,.4-.175,2.305,2.305,0,0,0,.375-.171,1.888,1.888,0,0,1,.539-.29.767.767,0,0,0,.272-.187c.111-.1.3-.266.422-.361a6.625,6.625,0,0,0,1.061-1.327,8.068,8.068,0,0,0,.564-1.775,6.808,6.808,0,0,0-.284-3.327,3.253,3.253,0,0,1-.151-.42,2.6,2.6,0,0,0-.373-.6c-.035-.032-.187-.219-.338-.418a2.212,2.212,0,0,0-.393-.423,3.379,3.379,0,0,1-.58-.469,1.938,1.938,0,0,0-.385-.254,2.4,2.4,0,0,1-.41-.264.94.94,0,0,0-.247-.164,1.843,1.843,0,0,1-.347-.2,1.4,1.4,0,0,0-.379-.2,1.652,1.652,0,0,1-.576-.3.118.118,0,0,0-.1-.043c-.045,0-.081-.026-.081-.058s-.043-.058-.094-.058a1.687,1.687,0,0,1-.418-.163c-.944-.475-1.426-.706-1.469-.7a.625.625,0,0,1-.206-.11,1.141,1.141,0,0,0-.326-.153,5.62,5.62,0,0,1-.761-.364c-.325-.178-.7-.38-.837-.449a1.839,1.839,0,0,1-.416-.3c-.156-.164-.171-.214-.171-.59,0-.395.008-.418.19-.57a.928.928,0,0,1,.373-.186c.1-.015,1.9-.014,3.991,0L20,8.844l-.011-2.418-.011-2.418-.681-.04c-.376-.022-2.266-.048-4.2-.057Zm7.066.011.02,7.833c.017,6.97.029,7.865.111,8.122a6.559,6.559,0,0,0,.516,1.256,1.556,1.556,0,0,1,.165.336,7.339,7.339,0,0,0,1.7,1.785,1.5,1.5,0,0,1,.28.159,5.475,5.475,0,0,0,1.605.783,12.11,12.11,0,0,0,2.184.528,17.315,17.315,0,0,0,3.289,0,9.032,9.032,0,0,0,2.288-.582.926.926,0,0,1,.279-.082,5.858,5.858,0,0,0,1.213-.635,1.932,1.932,0,0,1,.327-.21,6.806,6.806,0,0,0,1.36-1.262,1.47,1.47,0,0,1,.214-.3,4.7,4.7,0,0,0,.649-1.194c.038-.131.135-.472.215-.758l.146-.52,0-7.631,0-7.631H32.666v7.3c0,4.5-.021,7.352-.055,7.441-.071.188-.455.613-.553.613a.266.266,0,0,0-.153.077,2.384,2.384,0,0,1-1.517.3h-.808l-.458-.223a1.4,1.4,0,0,1-.828-.782l-.13-.256V3.921h-6Zm18.467,0V24.349l5.438,0c5.53,0,6.055-.019,6.736-.225a1.525,1.525,0,0,1,.359-.061,4.416,4.416,0,0,0,1.17-.473l.547-.292A5.391,5.391,0,0,0,56,22.354a6.344,6.344,0,0,0,.688-.96,10.345,10.345,0,0,0,.619-1.776,9.16,9.16,0,0,0,.1-2.077,6.06,6.06,0,0,0-.387-1.471,1.432,1.432,0,0,1-.118-.288,4.994,4.994,0,0,0-1.29-1.56c-.122-.095-.283-.227-.358-.3a1.626,1.626,0,0,0-.369-.227.645.645,0,0,1-.234-.139,1.3,1.3,0,0,1,.365-.288,10.088,10.088,0,0,0,.962-.95.686.686,0,0,1,.108-.2,6.5,6.5,0,0,0,.584-1.139,1.3,1.3,0,0,1,.138-.307,4.8,4.8,0,0,0,.06-1.183,4.07,4.07,0,0,0-.157-1.582,6.9,6.9,0,0,0-.791-1.65A6.86,6.86,0,0,0,54.78,5.151a7.691,7.691,0,0,0-1.861-.908c-.93-.293-1.556-.321-7.162-.321h-5.13Zm5.944,4.435,1.63.019c1.768.02,1.755.018,2.173.37A2.311,2.311,0,0,1,50.81,10.9a1.935,1.935,0,0,1-.735,1c-.233.125-.311.13-1.873.148l-1.63.019V8.357Zm.043,7.614c.024-.01.876-.005,1.894.011l1.851.029.243.161a2,2,0,0,1,.457.491l.213.33v.841c0,.77-.011.866-.139,1.139-.077.164-.175.3-.218.3a.132.132,0,0,0-.11.082,1.367,1.367,0,0,1-.726.428,14.176,14.176,0,0,1-1.89.067H46.572V17.919c0-1.061.019-1.938.043-1.948Z" transform="translate(0 -1.169)" fill="#ffcb08"/>
    <path id="Trazado_172" data-name="Trazado 172" d="M149.669.152a4.475,4.475,0,0,0-.046,1.2V2.637H147.3a15.858,15.858,0,0,0-3.52.194,4.021,4.021,0,0,0-2.258,1.358,4.86,4.86,0,0,0-.931,2.111c-.022.1-.057,1.237-.077,2.539-.041,2.605-.024,2.479-.427,2.981a2.685,2.685,0,0,1-1.976.683,3.645,3.645,0,0,1-1.391-.321,2.117,2.117,0,0,1-.734-.736c-.046-.128-.075-1.454-.1-4.424l-.03-4.241L132.9,2.767l-2.957-.015V7.267c0,2.484.025,4.68.054,4.881a7.785,7.785,0,0,0,.49,1.655A6.223,6.223,0,0,0,132.4,16c.187.127.391.277.454.334a.692.692,0,0,0,.26.137,1.853,1.853,0,0,1,.381.167,9.788,9.788,0,0,0,1.424.582l.274.083v5.881h6V17.321l.476-.165a12.608,12.608,0,0,0,2.4-1.2,8.874,8.874,0,0,0,1.412-1.461,7.578,7.578,0,0,0,.747-1.7,13.312,13.312,0,0,0,.211-3.116c0-.9.017-1.7.036-1.774.056-.21.356-.25,1.792-.233l1.317.015.016,1.256a6.023,6.023,0,0,0,.072,1.255.057.057,0,0,0,.057-.058.066.066,0,0,1,.072-.058,2.6,2.6,0,0,0,.514-.4,3.377,3.377,0,0,1,.492-.4,2.2,2.2,0,0,0,.394-.325,5.211,5.211,0,0,1,.547-.457,5.523,5.523,0,0,0,.549-.453,2.517,2.517,0,0,1,.389-.321,2.062,2.062,0,0,0,.35-.275c.376-.335,1.474-1.248,1.8-1.492.13-.1.378-.313.553-.478l.317-.3-.4-.373a2.093,2.093,0,0,0-.472-.373.339.339,0,0,1-.181-.131,3.905,3.905,0,0,0-.451-.4c-.19-.15-.4-.321-.462-.381s-.394-.333-.734-.609-.7-.577-.789-.671A.7.7,0,0,0,152,2.06a3.245,3.245,0,0,1-.49-.4,3.286,3.286,0,0,0-.492-.4,2.043,2.043,0,0,1-.395-.321,5.075,5.075,0,0,0-.572-.469,1.7,1.7,0,0,1-.331-.27c-.024-.029-.041-.048-.055-.04ZM120.4,2.143c-.357-.006-.713,0-1.06.032a10.249,10.249,0,0,0-2.911.6,1.134,1.134,0,0,1-.313.093,5.684,5.684,0,0,0-1.251.641.992.992,0,0,1-.3.167.752.752,0,0,0-.265.188c-.108.1-.359.329-.557.5a1.816,1.816,0,0,0-.36.367,1.34,1.34,0,0,1-.222.323,3.728,3.728,0,0,0-.752,1.364c-.431,1.189-.41.716-.41,9.181V23.18h5.943V17.294H122.5V23.18h5.944V15.635c0-6.545-.012-7.612-.089-8.055a6.341,6.341,0,0,0-.886-2.284,4.459,4.459,0,0,1-.34-.451,2.084,2.084,0,0,0-.37-.433,4.808,4.808,0,0,1-.447-.384,1.985,1.985,0,0,0-.425-.33,2.1,2.1,0,0,1-.379-.225,5.285,5.285,0,0,0-1.267-.636c-.145-.042-.485-.146-.754-.229a11.279,11.279,0,0,0-3.082-.465Zm-10.243.608-2.988.015-2.989.015-.029,7.328-.029,7.329-.155.264c-.193.328-.225.354-.652.514a2.626,2.626,0,0,1-2.21-.243,1.362,1.362,0,0,1-.249-.362c-.1-.22-.106-.555-.108-7.454,0-3.972-.017-7.263-.036-7.313-.031-.082-.347-.091-2.972-.091H94.8V9.981c0,4.511-.021,7.3-.056,7.424a1.422,1.422,0,0,1-1.332.932,2.685,2.685,0,0,1-1.274-.143.888.888,0,0,0-.25-.091c-.105,0-.29-.234-.41-.52-.106-.25-.11-.531-.124-7.473-.008-3.967-.015-7.245-.015-7.284a16.914,16.914,0,0,0-2.972-.073H85.4v7.494c0,8.242-.011,7.946.356,9.067a5.212,5.212,0,0,0,1.469,2.33,4.437,4.437,0,0,0,.494.44,3.089,3.089,0,0,1,.412.256,3.9,3.9,0,0,0,1.323.634,9.916,9.916,0,0,0,1.889.467h0a13.213,13.213,0,0,0,2.888,0,10.229,10.229,0,0,0,2.356-.753c.107-.062.315-.2.461-.3.53-.366.684-.432.828-.351a.838.838,0,0,1,.159.108,9.011,9.011,0,0,0,1.27.721,1.976,1.976,0,0,1,.288.092,10.2,10.2,0,0,0,1.442.43,13.6,13.6,0,0,0,3.491,0,10.077,10.077,0,0,0,1.5-.412c.1-.04.277-.1.4-.145a2.187,2.187,0,0,0,.432-.2l.6-.383a6.166,6.166,0,0,0,.816-.658,5.489,5.489,0,0,0,1.062-1.352,1.16,1.16,0,0,1,.145-.344,6.774,6.774,0,0,0,.527-1.478c.09-.369.1-1.062.119-8.036l.02-7.632Zm9.795,4.512c.151-.006.316,0,.5,0a2.135,2.135,0,0,1,1.068.219c.569.256.655.342.832.818l.149.4v3.859h-4.562l.016-2.034.017-2.034.155-.319a1.066,1.066,0,0,1,.7-.656,2.74,2.74,0,0,1,1.128-.256Z" transform="translate(-26.59 0)" fill="#009743" stroke="#009743" stroke-width="0.084"/>
  </g>
</svg>
