<svg xmlns="http://www.w3.org/2000/svg" width="22.832" height="20.944" viewBox="0 0 22.832 20.944"><defs><style>.a{fill:#005077;}</style></defs><path class="a" d="M24.074,3.984a2.586,2.586,0,0,0-.851.206c-.238.1-1.145.485-2.575,1.1s-3.326,1.427-5.347,2.3c-4.043,1.738-8.587,3.7-10.915,4.7a2.669,2.669,0,0,0-.717.388A1.828,1.828,0,0,0,3,14.032a1.8,1.8,0,0,0,.507,1.219,2.423,2.423,0,0,0,.838.522L8.7,17.555c.192.587,1.235,3.779,1.477,4.561a3.347,3.347,0,0,0,.509,1.1,1.373,1.373,0,0,0,.353.329,1.113,1.113,0,0,0,.178.087l0,0c.014.006.026.015.041.02a.651.651,0,0,0,.082.019,1.377,1.377,0,0,0,1.319-.23l.02-.015,2.863-2.477,3.472,3.285a1.82,1.82,0,0,0,1.51.695,1.912,1.912,0,0,0,1.375-.619,2.065,2.065,0,0,0,.574-1.076v0c.075-.4,3.276-16.827,3.276-16.827l-.006.022a2.554,2.554,0,0,0,.015-1.219,1.662,1.662,0,0,0-.713-.972A1.71,1.71,0,0,0,24.074,3.984ZM23.9,5.972c0,.028,0,.014,0,.046l0,.011,0,.011S20.728,22.26,20.611,22.878c.009-.047-.031.046-.071.1a1.348,1.348,0,0,0-.173-.089l-.019-.02-4.743-4.487-3.354,2.9,1-3.995s6.237-6.456,6.612-6.832c.3-.3.366-.405.366-.509a.216.216,0,0,0-.234-.24,1.054,1.054,0,0,0-.446.208c-1.363.869-7.348,4.357-10.031,5.917l-4.392-1.8.013-.006c2.329-1,6.871-2.959,10.913-4.7,2.021-.869,3.917-1.683,5.347-2.3C22.807,6.433,23.785,6.018,23.9,5.972Z" transform="translate(-3 -3.982)"/></svg>