<svg xmlns="http://www.w3.org/2000/svg" width="22.95" height="22.95" viewBox="0 0 22.95 22.95"><defs><style>.a{fill:#005077;}.b{fill:#fff;}</style></defs><g transform="translate(-324 -7195)"><circle class="a" cx="11.475" cy="11.475" r="11.475" transform="translate(324 7195)"/><path class="b" d="M42.353,74.432,49.5,71.485c.706-.307,3.1-1.289,3.1-1.289s1.1-.43,1.013.614c-.031.43-.276,1.934-.522,3.56l-.767,4.818s-.061.706-.584.829a2.521,2.521,0,0,1-1.534-.552c-.123-.092-2.3-1.473-3.1-2.148a.581.581,0,0,1,.031-.982c1.1-1.013,2.425-2.271,3.222-3.069.368-.368.737-1.228-.8-.184L45.238,76a1.8,1.8,0,0,1-1.412.031c-.921-.276-1.995-.644-1.995-.644s-.737-.46.522-.951Z" transform="translate(287.383 7131.891)"/></g></svg>