<svg xmlns="http://www.w3.org/2000/svg" width="54.262" height="38.982" viewBox="0 0 54.262 38.982">
  <g id="Layer_1" transform="translate(-1.478 -1.514)">
    <g id="Grupo_242" data-name="Grupo 242" transform="translate(1.478 1.513)">
      <path id="Trazado_184" data-name="Trazado 184" d="M295.491,2.407a9.212,9.212,0,0,1,7.339-.253,7.561,7.561,0,0,1,3.485,2.586,6,6,0,0,1,.532,3.527,12.79,12.79,0,0,0-2.273-2.076,8.807,8.807,0,0,0-5.963-1.408,8.942,8.942,0,0,0-6.515,3.469,7.513,7.513,0,0,1,.267-3.027A6.131,6.131,0,0,1,295.491,2.407Z" transform="translate(-252.958 -1.513)" fill="#396bb4"/>
      <path id="Trazado_185" data-name="Trazado 185" d="M95.335,22.787a2.4,2.4,0,1,1,.611,4.733,2.4,2.4,0,0,1-.611-4.733Z" transform="translate(-81.118 -19.866)" fill="#396bb4"/>
      <path id="Trazado_186" data-name="Trazado 186" d="M3.835,39.47a3.772,3.772,0,0,1,1.728-.2c-.005,1.245-.008,2.49,0,3.735q2.849-.008,5.7,0a18.926,18.926,0,0,1-.055,2.069,2.228,2.228,0,0,1-2.182,1.559c-1.154.016-2.307.011-3.461,0-.007,2.222,0,4.445,0,6.667a2.748,2.748,0,0,0,.991,2.354,4.151,4.151,0,0,0,2.618.367,5.682,5.682,0,0,0,2.086-.579c-.051.973.184,2.039-.365,2.916a3.244,3.244,0,0,1-2.528,1.3,8.039,8.039,0,0,1-3.887-.567,4.747,4.747,0,0,1-2.544-2.749A8.449,8.449,0,0,1,1.48,53.3q0-4.848,0-9.7a4.3,4.3,0,0,1,.583-2.391A5.012,5.012,0,0,1,3.835,39.47Z" transform="translate(-1.478 -34.182)" fill="#396bb4"/>
      <g id="Grupo_241" data-name="Grupo 241" transform="translate(38.324 8.457)">
        <path id="Trazado_187" data-name="Trazado 187" d="M293.807,64.357a7.866,7.866,0,0,1,4.83,1.221,8.2,8.2,0,0,1,3.43,5.9,10.615,10.615,0,0,1-1.121,6.224,7.281,7.281,0,0,1-4.478,3.552,8.33,8.33,0,0,1-6.947-1.023,8.157,8.157,0,0,1-3.241-5.64,10.741,10.741,0,0,1,1.036-6.215A7.262,7.262,0,0,1,290.3,65.3,8.336,8.336,0,0,1,293.807,64.357Zm-.756,3.758a3.093,3.093,0,0,0-1.918,1.516,6.78,6.78,0,0,0-.672,3.755,5.644,5.644,0,0,0,1.127,3.418,3.8,3.8,0,0,0,3.583,1.031A3.189,3.189,0,0,0,297.362,76a7.422,7.422,0,0,0,.5-3.7,5.182,5.182,0,0,0-1.345-3.395A3.84,3.84,0,0,0,293.05,68.115Z" transform="translate(-286.194 -64.341)" fill="#396bb4"/>
      </g>
      <path id="Trazado_188" data-name="Trazado 188" d="M165.893,65.773a11.186,11.186,0,0,1,5.336-.425,4.268,4.268,0,0,1,3.115,2.089,6.075,6.075,0,0,1,.3,2.745l-.5,0a8.258,8.258,0,0,0-4.862-1.4,5.332,5.332,0,0,0-4.263,1.878,4.942,4.942,0,0,0-1.058,3.453,5.427,5.427,0,0,0,1.394,3.789,5.482,5.482,0,0,0,4.2,1.335c.56-.035,1.337-.188,1.413-.864a16.1,16.1,0,0,0-.288-4.431c.789.022,1.579-.024,2.366.026A2.053,2.053,0,0,1,174.954,76c-.066,1.474.223,3.043-.416,4.43a4.32,4.32,0,0,1-3.2,2.177,10.83,10.83,0,0,1-7.384-1.005,8,8,0,0,1-3.9-4.945,9.321,9.321,0,0,1,.879-7A8.824,8.824,0,0,1,165.893,65.773Z" transform="translate(-138.433 -56.622)" fill="#396bb4"/>
      <path id="Trazado_189" data-name="Trazado 189" d="M96.218,69.74a5.7,5.7,0,0,1,2.852.4,2.7,2.7,0,0,1,1.226,2.391c.015,2.2,0,4.4.008,6.6a12.928,12.928,0,0,0,.079,2.142,1.451,1.451,0,0,0,.735,1.093,5.229,5.229,0,0,0,2.467.314,4.743,4.743,0,0,1-.392,2.564,2.158,2.158,0,0,1-1.806.793,5.1,5.1,0,0,1-3.808-1.226,5.375,5.375,0,0,1-1.362-3.926Q96.216,75.312,96.218,69.74Z" transform="translate(-83.464 -60.556)" fill="#396bb4"/>
      <path id="Trazado_190" data-name="Trazado 190" d="M192.208,213.569a16.751,16.751,0,0,0,4.29,4.068,12.165,12.165,0,0,0,6.907,1.818,13.619,13.619,0,0,0,8.8-3.3,14.646,14.646,0,0,0,2.244-2.553,10.827,10.827,0,0,1-.32,3.949,8.4,8.4,0,0,1-3.669,4.291,12.746,12.746,0,0,1-7.45,2.16,12.974,12.974,0,0,1-9.056-4.083,6.113,6.113,0,0,1-1.454-2.428A10.687,10.687,0,0,1,192.208,213.569Z" transform="translate(-166.497 -185.026)" fill="#396bb4"/>
    </g>
  </g>
</svg>
