<svg xmlns="http://www.w3.org/2000/svg" width="22.95" height="22.951" viewBox="0 0 22.95 22.951">
  <g id="Grupo_196" data-name="Grupo 196" transform="translate(-575 -8037.672)">
    <g id="Grupo_25" data-name="Grupo 25" transform="translate(575 8037.672)">
      <path id="Trazado_106" data-name="Trazado 106" d="M11.475,0A11.475,11.475,0,1,1,0,11.475,11.475,11.475,0,0,1,11.475,0Z" transform="translate(0 0)" fill="#fff"/>
      <path id="Trazado_45" data-name="Trazado 45" d="M313.718,68.876a5.187,5.187,0,0,1-1.266.361c.2-.034.5-.4.622-.552a2.326,2.326,0,0,0,.42-.766c.011-.022.019-.049,0-.066a.072.072,0,0,0-.067.005,6.464,6.464,0,0,1-1.5.574.1.1,0,0,1-.1-.027,1.18,1.18,0,0,0-.131-.134,2.654,2.654,0,0,0-.727-.445,2.531,2.531,0,0,0-1.115-.18,2.66,2.66,0,0,0-1.058.3,2.722,2.722,0,0,0-.853.7,2.615,2.615,0,0,0-.509,1.02,2.751,2.751,0,0,0-.027,1.078c.008.06,0,.068-.052.06a8.019,8.019,0,0,1-5.157-2.624c-.06-.069-.093-.069-.142,0a2.616,2.616,0,0,0,.446,3.09c.1.1.2.192.317.279a2.628,2.628,0,0,1-1-.279c-.06-.038-.09-.016-.1.052a1.591,1.591,0,0,0,.016.3,2.644,2.644,0,0,0,1.629,2.108,1.524,1.524,0,0,0,.331.1,2.946,2.946,0,0,1-.976.03c-.071-.013-.1.022-.071.09a2.746,2.746,0,0,0,2.051,1.717c.093.016.186.016.279.038-.006.008-.012.008-.016.016a3.249,3.249,0,0,1-1.4.742,5.01,5.01,0,0,1-2.126.272c-.115-.016-.139-.016-.169,0s0,.047.033.076c.144.1.292.181.443.263a7.037,7.037,0,0,0,1.421.569,7.573,7.573,0,0,0,7.351-1.719,7.717,7.717,0,0,0,2.034-5.628c0-.081.1-.126.152-.168a5,5,0,0,0,1-1.041.319.319,0,0,0,.066-.2v-.011C313.769,68.843,313.768,68.853,313.718,68.876Z" transform="translate(-295.902 -61.332)" fill="#005077"/>
    </g>
  </g>
</svg>
