<svg xmlns="http://www.w3.org/2000/svg" width="20.894" height="20.944" viewBox="0 0 20.894 20.944"><defs><style>.a,.b{fill:#005077;}.b{fill-rule:evenodd;}.c{fill:#c60c30;}</style></defs><g transform="translate(-37.772 -518.789)"><g transform="translate(-47.728 -6844.271)"><g transform="translate(85.5 7363.061)"><path class="a" d="M301.156,128.922l1.5-5.6a10.369,10.369,0,1,1,4.129,4.093Zm5.912-3.608.355.212a8.417,8.417,0,1,0-2.88-2.854l.217.357-.838,3.127Z" transform="translate(-301.156 -107.978)"/><path class="b" d="M314.51,118.7a1.738,1.738,0,0,0-1.482-.334c-.384.156-.631.759-.879,1.067a.37.37,0,0,1-.478.1,6.7,6.7,0,0,1-3.348-2.869.41.41,0,0,1,.052-.56,2.267,2.267,0,0,0,.608-.988,2.163,2.163,0,0,0-.272-1.169,2.771,2.771,0,0,0-.863-1.3,1.182,1.182,0,0,0-1.283.191,2.608,2.608,0,0,0-.9,2.066,2.914,2.914,0,0,0,.081.655,5.443,5.443,0,0,0,.628,1.45,11.693,11.693,0,0,0,.657,1,10.135,10.135,0,0,0,2.848,2.643,8.6,8.6,0,0,0,1.775.845,3.964,3.964,0,0,0,2.067.326,2.5,2.5,0,0,0,1.873-1.394,1.213,1.213,0,0,0,.087-.712C315.569,119.233,314.905,118.941,314.51,118.7Z" transform="translate(-300.112 -106.921)"/></g><g transform="translate(99.744 7363.5)"><g transform="translate(0)"><circle class="c" cx="3.105" cy="3.105" r="3.105"/></g></g></g></g></svg>