<svg xmlns="http://www.w3.org/2000/svg" width="23.439" height="23.438" viewBox="0 0 23.439 23.438">
  <g id="Grupo_199" data-name="Grupo 199" transform="translate(-684 -8037.184)">
    <g id="Grupo_31" data-name="Grupo 31" transform="translate(389.565 7935.097)">
      <path id="Trazado_107" data-name="Trazado 107" d="M11.719,0A11.719,11.719,0,1,1,0,11.719,11.719,11.719,0,0,1,11.719,0Z" transform="translate(294.435 102.087)" fill="#fff"/>
      <path id="Trazado_53" data-name="Trazado 53" d="M301.156,121.607l.978-3.645a6.747,6.747,0,1,1,2.687,2.663ZM305,119.259l.231.138a5.477,5.477,0,1,0-1.874-1.857l.141.232-.545,2.035Z" transform="translate(-1.334 -1.169)" fill="#005077"/>
      <path id="Trazado_54" data-name="Trazado 54" d="M311.419,116.551a1.131,1.131,0,0,0-.964-.217c-.25.1-.41.494-.572.694a.241.241,0,0,1-.311.067,4.363,4.363,0,0,1-2.179-1.867.267.267,0,0,1,.034-.365,1.476,1.476,0,0,0,.4-.643,1.408,1.408,0,0,0-.177-.761,1.8,1.8,0,0,0-.562-.846.769.769,0,0,0-.835.124,1.7,1.7,0,0,0-.588,1.344,1.9,1.9,0,0,0,.053.426,3.543,3.543,0,0,0,.409.943,7.611,7.611,0,0,0,.427.649,6.6,6.6,0,0,0,1.853,1.72,5.592,5.592,0,0,0,1.155.55,2.579,2.579,0,0,0,1.345.212,1.63,1.63,0,0,0,1.219-.907.789.789,0,0,0,.057-.463C312.108,116.9,311.676,116.705,311.419,116.551Z" transform="translate(-2.228 -2.075)" fill="#005077" fill-rule="evenodd"/>
    </g>
  </g>
</svg>
