<svg xmlns="http://www.w3.org/2000/svg" width="22.951" height="22.951" viewBox="0 0 22.951 22.951"><defs><style>.a{fill:#005077;}.b{fill:#fff;}</style></defs><ellipse class="a" cx="11.475" cy="11.475" rx="11.475" ry="11.475" transform="translate(0 0)"/><path class="b" d="M270.957,113.827a2.756,2.756,0,0,0-2.756-2.756h-7.046a2.756,2.756,0,0,0-2.756,2.756v3.279a2.756,2.756,0,0,0,2.756,2.756H268.2a2.756,2.756,0,0,0,2.756-2.756Zm-4.144,1.885-3.16,1.563c-.124.067-.545-.023-.545-.163V113.9c0-.143.425-.232.549-.162l3.025,1.646C266.809,115.459,266.942,115.643,266.814,115.712Z" transform="translate(-253.338 -104.02)"/></svg>