<svg xmlns="http://www.w3.org/2000/svg" width="40.24" height="28.167" viewBox="0 0 40.24 28.167">
  <path id="Trazado_441" data-name="Trazado 441" d="M298.64,119.9a8.83,8.83,0,0,0-8.83-8.83H267.23a8.83,8.83,0,0,0-8.83,8.83v10.508a8.83,8.83,0,0,0,8.83,8.83h22.58a8.83,8.83,0,0,0,8.83-8.83Zm-13.279,6.041-10.125,5.01c-.4.214-1.745-.073-1.745-.523V120.145c0-.458,1.361-.744,1.758-.518l9.693,5.274C285.346,125.132,285.773,125.721,285.361,125.942Z" transform="translate(-258.4 -111.071)" fill="#005077"/>
</svg>
