<svg xmlns="http://www.w3.org/2000/svg" width="144.256" height="26" viewBox="0 0 144.256 26">
  <g id="Grupo_799" data-name="Grupo 799" transform="translate(-7342.791 -845.594)">
    <rect id="Rect치ngulo_1141" data-name="Rect치ngulo 1141" width="140" height="26" rx="5" transform="translate(7342.791 845.594)" fill="#fff"/>
    <path id="Rectangle_1141_-_Outline" data-name="Rectangle 1141 - Outline" d="M2.708.525a2.136,2.136,0,0,0-2.166,2.1v19.94a2.136,2.136,0,0,0,2.166,2.1H141.339a2.136,2.136,0,0,0,2.166-2.1V2.624a2.136,2.136,0,0,0-2.166-2.1H2.708m0-.525H141.339a2.667,2.667,0,0,1,2.708,2.624v19.94a2.667,2.667,0,0,1-2.708,2.624H2.708A2.667,2.667,0,0,1,0,22.564V2.624A2.667,2.667,0,0,1,2.708,0Z" transform="translate(7343 846)" fill="#cccbcd"/>
    <path id="Rect치ngulo_1142" data-name="Rect치ngulo 1142" d="M5,0H88a0,0,0,0,1,0,0V26a0,0,0,0,1,0,0H5a5,5,0,0,1-5-5V5A5,5,0,0,1,5,0Z" transform="translate(7342.791 845.594)" fill="#c60c30"/>
    <path id="Trazado_433" data-name="Trazado 433" d="M278.422,115.465a4.394,4.394,0,0,0-4.394-4.394H262.794a4.394,4.394,0,0,0-4.394,4.394v5.228a4.394,4.394,0,0,0,4.394,4.394h11.235a4.394,4.394,0,0,0,4.394-4.394Zm-6.607,3.006-5.038,2.493c-.2.106-.868-.036-.868-.26v-5.117c0-.228.677-.37.875-.258l4.823,2.624C271.808,118.068,272.02,118.36,271.815,118.471Z" transform="translate(7090.372 740.515)" fill="#fff"/>
    <text id="YouTube" transform="translate(7373.791 851.594)" fill="#fff" font-size="12" font-family="Arial-BoldMT, Arial" font-weight="700"><tspan x="0" y="11">YouTube</tspan></text>
    <text id="_304.000" data-name="304.000" transform="translate(7436.791 851.594)" fill="#757475" font-size="12" font-family="ArialMT, Arial"><tspan x="-21.688" y="11">304.000</tspan></text>
  </g>
</svg>
